<?xml version="1.0" encoding="UTF-8"?>
<svg xmlns="http://www.w3.org/2000/svg" version="1.1" viewBox="0 0 750 420">
  <defs>
    <style>
      .cls-1 {
        fill: #de0919;
      }

      .cls-2 {
        fill: #fff;
      }

      .cls-3 {
        fill: #02509b;
      }

      .cls-4 {
        fill: #fdea14;
      }
    </style>
  </defs>
  <!-- Generator: Adobe Illustrator 28.7.1, SVG Export Plug-In . SVG Version: 1.2.0 Build 142)  -->
  <g>
    <g id="Livello_1">
      <g>
        <rect class="cls-3" x="-251.3" y="-5.8" width="1252.6" height="431.5"/>
        <g>
          <polygon class="cls-4" points="682.8 255.5 51.7 278.5 62.5 211.8 698.3 188.5 682.8 255.5"/>
          <polygon class="cls-4" points="723.7 181.6 16.6 202.6 25.4 136 733.4 115 723.7 181.6"/>
          <g>
            <path class="cls-3" d="M46.4,168.6l-.4-23.8,14.7-.3.4,23.6c0,5.4,2.9,7.6,6.8,7.5,3.9,0,6.6-2.2,6.5-7.5l-.4-23.9,14.7-.3.4,23.5c.3,14.7-8.2,20.7-21.1,20.9-12.9.2-21.3-5.5-21.6-19.8Z"/>
            <path class="cls-3" d="M93.2,144l13.5-.2,15.7,18.8-.3-19,14.3-.2.8,43.1-12.8.2-16.4-19.6.3,19.9-14.3.2-.8-43.1Z"/>
            <path class="cls-3" d="M141.4,143.1l14.4-.3.8,43.1-14.4.3-.8-43.1Z"/>
            <path class="cls-3" d="M157.9,179.5l7.5-9.3c4.7,3.5,10.1,4.9,15.2,4.8,2.6,0,3.7-.7,3.7-1.9h0c0-1.4-1.4-2-6-2.9-9.7-1.8-18.3-4.4-18.4-13.6h0c-.1-8.3,6.2-14.8,18.1-15,8.3-.1,14.5,1.7,19.6,5.6l-6.9,9.9c-4.1-2.9-9-4.1-13-4-2.2,0-3.1.8-3.1,1.8h0c0,1.3,1.2,2,5.8,2.8,11.1,1.8,18.5,4.9,18.7,13.6h0c.2,9.2-7.2,14.9-18.8,15.1-8.8.2-16.7-2.2-22.3-6.9Z"/>
            <path class="cls-3" d="M201.2,163.8h0c-.2-13,9.7-22.8,22.5-23,9.5-.2,16,4.3,19.7,10.9l-11.8,7.2c-1.7-3.1-4-5.2-7.9-5.1-4.9,0-8,4.4-7.9,9.6h0c0,5.7,3.5,9.6,8.2,9.5,4.1,0,6.3-2.3,8-5.6l12,6.5c-3.5,6.5-9.5,11.8-20.2,12-12,.2-22.5-8.6-22.8-22Z"/>
            <path class="cls-3" d="M246.5,141.3l14.4-.3.8,43.1-14.4.3-.8-43.1Z"/>
            <path class="cls-3" d="M277.2,153l-12.7.2-.2-12.2,39.8-.7.2,12.2-12.7.2.5,30.9-14.4.3-.5-30.9Z"/>
            <path class="cls-3" d="M307.5,140.2l14.4-.3.8,43.1-14.4.3-.8-43.1Z"/>
            <path class="cls-3" d="M357.7,139.1l14.3-.2,18.9,43.1-15.7.3-2.4-5.8-15.1.3-2.1,5.8-15.4.3,17.4-43.8ZM369.1,166.3l-4.1-10.4-3.8,10.5h7.9Z"/>
            <path class="cls-3" d="M391.9,138.8l14.4-.3.5,30.8,20.3-.4.2,12.3-34.7.6-.8-43.1Z"/>
            <path class="cls-3" d="M429.8,138.1l14.4-.3.5,30.8,20.3-.4.2,12.3-34.7.6-.8-43.1Z"/>
            <path class="cls-3" d="M482.6,136.9l14.3-.2,18.9,43.1-15.7.3-2.4-5.8-15.1.3-2.1,5.8-15.4.3,17.4-43.8ZM494.1,164.1l-4.1-10.4-3.8,10.5h7.9Z"/>
            <path class="cls-3" d="M532.6,136.3l14.4-.3.5,30.8,20.3-.4.2,12.3-34.7.6-.8-43.1Z"/>
            <path class="cls-3" d="M570.4,135.6l36.8-.6.2,11.8-22.6.4v4.4c0,0,21.2-.4,21.2-.4l.2,10.4-21.1.4v4.7c0,0,23-.4,23-.4l.2,11.8-37.1.6-.8-43.1Z"/>
            <path class="cls-3" d="M610.2,156.7h0c-.2-13,9.8-22.8,23.4-23,7.4-.1,13.4,2.2,18.2,6.2l-7.9,9.9c-2.9-2.4-6-3.7-9.6-3.6-5.6,0-9.6,4.5-9.5,10.3h0c.1,6.2,4.4,10.3,10.5,10.2,2.5,0,3.8-.4,4.9-1.1v-4.3c0,0-7.5.1-7.5.1l-.2-9.2,20.9-.4.3,20c-4.6,3.9-11.1,6.7-18.9,6.8-13.4.2-24.4-8.6-24.6-22Z"/>
            <path class="cls-3" d="M672.3,133.6l14.3-.2,18.9,43.1-15.7.3-2.4-5.8-15.1.3-2.1,5.8-15.4.3,17.4-43.8ZM683.7,160.8l-4.1-10.4-3.8,10.5h7.9Z"/>
            <path class="cls-3" d="M99.7,215.8l21.1-.4c7.6-.1,12.5,1.7,15.6,4.7,2.6,2.5,4,5.7,4.1,10.2h0c.1,6.4-3.1,10.8-8.3,13.5l10.3,14.5-16.5.3-8.4-12.2h-3.1c0,0,.2,12.4.2,12.4l-14.4.3-.8-43.1ZM120.7,236c3.5,0,5.5-1.6,5.5-4.3h0c0-2.9-2.2-4.2-5.6-4.2h-6.3c0,.1.1,8.6.1,8.6h6.2Z"/>
            <path class="cls-3" d="M143.9,215l14.4-.3.8,43.1-14.4.3-.8-43.1Z"/>
            <path class="cls-3" d="M160.4,251.4l7.5-9.3c4.7,3.5,10.1,4.9,15.2,4.8,2.6,0,3.7-.7,3.7-1.9h0c0-1.4-1.4-2-6-2.9-9.7-1.8-18.3-4.4-18.4-13.6h0c-.1-8.3,6.2-14.8,18.1-15,8.3-.1,14.5,1.7,19.6,5.6l-6.9,9.9c-4.1-2.9-9-4.1-13-4-2.2,0-3.1.8-3.1,1.8h0c0,1.3,1.2,2,5.8,2.8,11.1,1.8,18.5,4.9,18.7,13.6h0c.2,9.2-7.2,14.9-18.8,15.1-8.8.2-16.7-2.2-22.3-6.9Z"/>
            <path class="cls-3" d="M204.3,214l19.4-.3c11.5-.2,19.4,4.8,19.6,15h0c.2,10.5-7.7,16.2-19.3,16.4h-4.7c0,0,.2,11.8.2,11.8l-14.4.3-.8-43.1ZM223,234.8c3.7,0,6.1-1.8,6.1-4.9h0c0-3.3-2.4-4.8-6.2-4.8h-3.9c0,0,.2,9.7.2,9.7h3.9Z"/>
            <path class="cls-3" d="M256.8,212.7l14.3-.2,18.9,43.1-15.7.3-2.4-5.8-15.1.3-2.1,5.8-15.4.3,17.4-43.8ZM268.2,240l-4.1-10.4-3.8,10.5h7.9Z"/>
            <path class="cls-3" d="M291.1,212.4l21.1-.4c7.6-.1,12.5,1.7,15.6,4.7,2.6,2.5,4,5.7,4.1,10.2h0c.1,6.4-3.1,10.8-8.3,13.5l10.3,14.5-16.5.3-8.4-12.2h-3.1c0,0,.2,12.4.2,12.4l-14.4.3-.8-43.1ZM312.1,232.6c3.5,0,5.5-1.6,5.5-4.3h0c0-2.9-2.2-4.2-5.6-4.2h-6.3c0,.1.1,8.6.1,8.6h6.2Z"/>
            <path class="cls-3" d="M335.1,211.7l15-.3,9.5,15,9-15.3,15-.3.8,43.1-14.4.3-.4-21.4-9.7,15.5h-.2s-10.2-15.2-10.2-15.2l.4,21.4-14.1.2-.8-43.1Z"/>
            <path class="cls-3" d="M388.7,210.7l14.4-.3.8,43.1-14.4.3-.8-43.1Z"/>
            <path class="cls-3" d="M407.6,232.1h0c-.2-12.6,9.9-22.8,23.2-23,13.3-.2,23.7,9.5,23.9,22h0c.2,12.6-9.9,22.8-23.2,23s-23.7-9.5-23.9-22ZM440.2,231.5h0c0-5.2-3.7-9.8-9.2-9.7-5.5,0-8.9,4.7-8.8,9.8h0c0,5.2,3.7,9.8,9.2,9.7,5.5,0,8.9-4.7,8.8-9.8Z"/>
            <path class="cls-3" d="M473.3,231h0c-.2-13,9.7-22.8,22.5-23,9.5-.2,16,4.3,19.7,10.9l-11.8,7.2c-1.7-3.1-4-5.2-7.9-5.1-4.9,0-8,4.4-7.9,9.6h0c0,5.7,3.5,9.6,8.2,9.5,4.1,0,6.3-2.3,8-5.6l12,6.5c-3.5,6.5-9.5,11.8-20.2,12-12,.2-22.5-8.6-22.8-22Z"/>
            <path class="cls-3" d="M532.8,207.9l14.3-.2,18.9,43.1-15.7.3-2.4-5.8-15.1.3-2.1,5.8-15.4.3,17.4-43.8ZM544.2,235.2l-4.1-10.4-3.8,10.5h7.9Z"/>
            <path class="cls-3" d="M563.5,244.4l7.5-9.3c4.7,3.5,10.1,4.9,15.2,4.8,2.6,0,3.7-.7,3.7-1.9h0c0-1.4-1.4-2-6-2.9-9.7-1.8-18.3-4.4-18.4-13.6h0c-.1-8.3,6.2-14.8,18.1-15,8.3-.1,14.5,1.7,19.6,5.6l-6.9,9.9c-4.1-2.9-9-4.1-13-4-2.2,0-3.1.8-3.1,1.8h0c0,1.3,1.2,2,5.8,2.8,11.1,1.8,18.5,4.9,18.7,13.6h0c.2,9.2-7.2,14.9-18.8,15.1-8.8.2-16.7-2.2-22.3-6.9Z"/>
            <path class="cls-3" d="M621.5,206.4l14.3-.2,18.9,43.1-15.7.3-2.4-5.8-15.1.3-2.1,5.8-15.4.3,17.4-43.8ZM632.9,233.6l-4.1-10.4-3.8,10.5h7.9Z"/>
          </g>
          <g>
            <g>
              <polygon class="cls-4" points="698.1 283.8 703.4 265.5 684.1 260.3 604.5 323.6 698.1 283.8"/>
              <polygon class="cls-1" points="653.3 345.4 662.6 336.7 653.3 327.1 613.7 335.8 653.3 345.4"/>
              <polygon class="cls-4" points="59.6 308.4 46.6 317.6 56.5 331.1 141.7 330.9 59.6 308.4"/>
              <polygon class="cls-1" points="110.8 283.5 101.6 290.6 105.1 302.6 140.5 305.8 110.8 283.5"/>
            </g>
            <g>
              <path class="cls-1" d="M605,329.2c-1.4-5.9-1.1-12,.8-17.8,6.9-20.7-8.7-42.2-30.2-43-56.2-2.2-112.5-3.5-168.8-3.9-77.5-.4-154.9.9-232.3,3.9-21.5.9-37.2,22.4-30.2,43,1.9,5.7,2.2,11.9.8,17.8h0c-4.9,20.9,12.2,41.1,33.5,40.3,75.8-3,151.7-4.2,227.6-3.9,55.1.4,110.3,1.7,165.4,3.9,21.3.8,38.3-19.4,33.5-40.3h0Z"/>
              <g>
                <path class="cls-2" d="M224.4,281.4c10.7-.3,16-.5,26.7-.7,0,3.4.1,5.1.2,8.4-6.6.2-9.8.3-16.4.4,0,1.2,0,1.9,0,3.1,6.1-.2,9.2-.3,15.3-.4,0,3,.1,4.5.2,7.4-6.1.2-9.1.2-15.2.4,0,1.3,0,2,0,3.3,6.6-.2,9.9-.3,16.6-.4,0,3.4.1,5.1.2,8.4-10.7.3-16,.4-26.7.7-.3-10.2-.6-20.5-.9-30.7Z"/>
                <path class="cls-2" d="M265.4,280.3c5.6-.1,8.5-.2,14.1-.3,8.3-.2,14.1,3.4,14.2,10.7,0,0,0,0,0,0,.1,7.4-5.6,11.5-14,11.6-1.4,0-2,0-3.4,0,0,3.3.1,5,.2,8.3-4.2,0-6.2.1-10.4.2-.2-10.2-.5-20.5-.7-30.7ZM279,295.1c2.7,0,4.4-1.3,4.4-3.5,0,0,0,0,0,0,0-2.2-1.7-3.4-4.5-3.3-1.1,0-1.7,0-2.9,0,0,2.7,0,4.1.1,6.9,1.1,0,1.7,0,2.8,0Z"/>
                <path class="cls-2" d="M303.5,279.4c4.2,0,6.2,0,10.4-.1,4.5,10.3,9,20.5,13.5,30.8-4.5,0-6.8,0-11.3.1-.7-1.6-1-2.5-1.7-4.1-4.4,0-6.5,0-10.9.1-.6,1.7-.9,2.5-1.5,4.2-4.4,0-6.7.1-11.1.2,4.2-10.4,8.4-20.8,12.7-31.2ZM311.7,298.8c-1.2-3-1.8-4.5-3-7.4-1.1,3-1.7,4.5-2.8,7.5,2.3,0,3.4,0,5.7,0Z"/>
                <path class="cls-2" d="M328.4,279.3c6.1,0,9.2,0,15.3-.1,5.5,0,9.1,1.3,11.3,3.5,1.9,1.8,2.9,4.1,2.9,7.3h0c0,4.6-2.3,7.7-6.1,9.5,2.9,4.2,4.4,6.3,7.3,10.4-4.7,0-7.1,0-11.9,0-2.4-3.5-3.6-5.3-5.9-8.7-.9,0-1.3,0-2.2,0,0,3.5,0,5.3,0,8.8-4.2,0-6.2,0-10.4,0,0-10.2-.2-20.5-.3-30.7ZM343.5,293.8c2.5,0,4-1.1,4-3,0,0,0,0,0,0,0-2-1.6-2.9-4-2.9-1.8,0-2.7,0-4.6,0,0,2.4,0,3.6,0,6,1.8,0,2.7,0,4.5,0Z"/>
                <path class="cls-2" d="M368.4,287.8c-3.7,0-5.5,0-9.2,0,0-3.5,0-5.2,0-8.7,9.6,0,19.3,0,28.9,0,0,3.5,0,5.2,0,8.7-3.7,0-5.5,0-9.2,0,0,8.8,0,13.2,0,22.1-4.2,0-6.2,0-10.4,0,0-8.8,0-13.2,0-22.1Z"/>
                <path class="cls-2" d="M390.4,279.1c10.7,0,16,0,26.7.2,0,3.4,0,5.1,0,8.4-6.6,0-9.8,0-16.4-.1,0,1.2,0,1.9,0,3.1,6.1,0,9.2,0,15.3.1,0,3,0,4.5,0,7.4-6.1,0-9.1,0-15.2-.1,0,1.3,0,2,0,3.3,6.6,0,9.9,0,16.6.1,0,3.4,0,5.1,0,8.4-10.7,0-16.1-.1-26.8-.2,0-10.3,0-20.5,0-30.8Z"/>
                <path class="cls-2" d="M418.9,294.7s0,0,0,0c0-9.2,7.4-16,16.8-15.9,6.9,0,11.5,3.4,14.1,8.2-3.5,1.9-5.2,2.9-8.7,4.8-1.1-2.2-2.8-3.8-5.6-3.8-3.5,0-5.9,3-5.9,6.7,0,0,0,0,0,0,0,4,2.3,6.8,5.8,6.9,2.9,0,4.6-1.5,5.9-3.8,3.4,2,5.1,2.9,8.5,4.9-2.7,4.5-7.1,8.2-14.8,8.1-8.6-.1-16.1-6.6-16-16.1Z"/>
                <path class="cls-2" d="M452.1,279.7c4.2,0,6.3.1,10.5.2-.2,10.2-.4,20.5-.5,30.7-4.2,0-6.2-.1-10.4-.2.2-10.2.3-20.5.5-30.7Z"/>
                <path class="cls-2" d="M466.3,279.9c5.6.1,8.5.2,14.1.3,8.3.2,13.9,4,13.7,11.3h0c-.2,7.5-6,11.3-14.4,11.1-1.4,0-2,0-3.4,0,0,3.3-.1,5-.2,8.3-4.2,0-6.2-.1-10.4-.2.2-10.2.4-20.5.6-30.7ZM479.2,295.3c2.7,0,4.5-1.1,4.5-3.3,0,0,0,0,0,0,0-2.2-1.6-3.4-4.3-3.5-1.1,0-1.7,0-2.9,0,0,2.7,0,4.1-.1,6.9,1.1,0,1.7,0,2.8,0Z"/>
                <path class="cls-2" d="M504.4,280.6c4.1.1,6.2.2,10.4.3,4.1,10.4,8.2,20.9,12.2,31.3-4.5-.1-6.8-.2-11.3-.3-.6-1.7-.9-2.5-1.5-4.2-4.4-.1-6.5-.2-10.9-.3-.7,1.6-1,2.5-1.7,4.1-4.4-.1-6.7-.2-11.1-.3,4.6-10.2,9.3-20.4,13.9-30.6ZM511.8,300.3c-1.1-3-1.6-4.5-2.6-7.5-1.2,3-1.8,4.4-3.1,7.4,2.3,0,3.4,0,5.7.2Z"/>
                <path class="cls-2" d="M210.4,322.9c4.1-.1,6.2-.2,10.3-.3,4.7,10.2,9.3,20.4,14,30.6-4.5.1-6.7.2-11.2.3-.7-1.6-1.1-2.4-1.8-4.1-4.3.1-6.5.2-10.8.4-.6,1.7-.9,2.5-1.4,4.2-4.4.1-6.6.2-11,.4,4-10.5,8-20.9,12-31.4ZM218.9,342.2c-1.2-2.9-1.8-4.4-3.1-7.4-1,3-1.6,4.5-2.6,7.6,2.3,0,3.4-.1,5.7-.2Z"/>
                <path class="cls-2" d="M235,322.4c4.1-.1,6.2-.2,10.4-.3.2,8.8.3,13.2.6,22,5.8-.2,8.7-.2,14.5-.4,0,3.5.1,5.3.2,8.8-9.9.2-14.9.4-24.8.6-.3-10.2-.6-20.5-.9-30.7Z"/>
                <path class="cls-2" d="M273.1,336.9h0c-.2-9.3,6.9-16.3,16.2-16.4,6.8-.1,11.5,3.1,14.2,7.8-3.4,2-5.1,3.1-8.5,5.1-1.2-2.2-2.8-3.7-5.7-3.6-3.5,0-5.7,3.1-5.7,6.8,0,0,0,0,0,0,0,4,2.5,6.8,5.9,6.7,2.9,0,4.5-1.7,5.8-4,3.4,1.9,5.2,2.8,8.6,4.7-2.5,4.6-6.8,8.4-14.5,8.5-8.5.1-16.1-6.1-16.3-15.6Z"/>
                <path class="cls-2" d="M304.2,336.4s0,0,0,0c-.1-8.9,7.2-16.1,16.8-16.2,9.6-.1,17,6.9,17,15.8,0,0,0,0,0,0,0,8.9-7.2,16.1-16.8,16.2-9.5.1-16.9-6.8-17-15.7ZM327.5,336.1s0,0,0,0c0-3.6-2.6-6.9-6.6-6.9-3.9,0-6.4,3.3-6.3,6.9,0,0,0,0,0,0,0,3.6,2.6,6.9,6.6,6.9,3.9,0,6.4-3.3,6.3-6.9Z"/>
                <path class="cls-2" d="M340.7,320.5c3.9,0,5.8,0,9.7,0,4.4,5.4,6.7,8.1,11.1,13.5,0-5.4,0-8.1,0-13.6,4.1,0,6.2,0,10.3,0,0,10.3,0,20.5,0,30.8-3.7,0-5.5,0-9.2,0-4.6-5.7-6.9-8.5-11.5-14.1,0,5.7,0,8.5,0,14.2-4.1,0-6.1,0-10.2,0,0-10.2-.1-20.5-.2-30.8Z"/>
                <path class="cls-2" d="M374.6,335.9h0c0-9.3,7.2-16.1,16.5-16.1,6.8,0,11.4,3.3,14,8.1-3.4,2-5.1,2.9-8.6,4.9-1.1-2.2-2.8-3.7-5.6-3.8-3.5,0-5.8,3-5.8,6.7,0,0,0,0,0,0,0,4,2.4,6.8,5.8,6.8,2.9,0,4.6-1.6,5.8-3.8,3.4,1.9,5.1,2.9,8.5,4.8-2.6,4.6-7,8.3-14.6,8.2-8.5,0-16-6.4-16-16Z"/>
                <path class="cls-2" d="M405.7,336s0,0,0,0c0-8.9,7.5-16,17.1-15.9,9.6,0,16.8,7.2,16.7,16.1,0,0,0,0,0,0-.1,8.9-7.6,15.9-17.1,15.8-9.5,0-16.7-7.2-16.7-16.1ZM429,336.2s0,0,0,0c0-3.6-2.4-7-6.4-7-3.9,0-6.4,3.2-6.5,6.8,0,0,0,0,0,0,0,3.6,2.5,7,6.4,7,3.9,0,6.4-3.2,6.5-6.8Z"/>
                <path class="cls-2" d="M442.5,320.9c6.1,0,9.1.1,15.2.2,5.5,0,9,1.5,11.1,3.7,1.8,1.9,2.8,4.2,2.7,7.3,0,0,0,0,0,0,0,4.5-2.5,7.6-6.3,9.3,2.8,4.2,4.2,6.4,7,10.6-4.7,0-7.1-.1-11.8-.2-2.3-3.6-3.4-5.3-5.7-8.9-.9,0-1.3,0-2.2,0,0,3.5,0,5.3-.1,8.8-4.1,0-6.2,0-10.3-.2.1-10.2.3-20.5.4-30.7ZM457.1,335.7c2.5,0,4-1,4-2.9h0c0-2.1-1.5-3.1-3.9-3.1-1.8,0-2.7,0-4.5,0,0,2.4,0,3.6,0,6,1.8,0,2.7,0,4.5,0Z"/>
                <path class="cls-2" d="M471.1,347.5c2.3-2.6,3.4-3.9,5.6-6.4,3.3,2.6,7.1,3.8,10.7,3.8,1.9,0,2.7-.4,2.7-1.3,0,0,0,0,0,0,0-.9-.9-1.4-4.2-2.1-6.9-1.5-13-3.7-12.8-10.2,0,0,0,0,0,0,.1-5.8,4.8-10.3,13.4-10.1,6,.1,10.4,1.7,13.9,4.6-2.1,2.7-3.1,4.1-5.2,6.8-2.9-2.2-6.3-3.2-9.2-3.2-1.5,0-2.3.5-2.3,1.2,0,0,0,0,0,0,0,.8.8,1.4,4.1,2.1,7.9,1.6,13.1,4.1,13,10.2,0,0,0,0,0,0-.2,6.5-5.6,10.3-13.9,10.1-6.3-.1-11.9-2-15.7-5.5Z"/>
                <path class="cls-2" d="M502.5,337.5h0c.2-9,7.8-15.9,17.4-15.6,9.6.3,16.7,7.6,16.4,16.5,0,0,0,0,0,0-.3,8.9-7.9,15.8-17.4,15.5-9.5-.3-16.6-7.5-16.4-16.4ZM525.8,338.2s0,0,0,0c.1-3.6-2.3-7-6.3-7.1-3.9-.1-6.5,3.1-6.6,6.7,0,0,0,0,0,0-.1,3.6,2.3,7,6.3,7.1,3.9.1,6.5-3.1,6.6-6.7Z"/>
                <path class="cls-2" d="M539.2,329.7c0-2.6.1-4,.2-6.6,4.5.2,6.8.2,11.3.4,0,2.6-.1,4-.2,6.6-1.4,5.8-2.2,8.7-3.6,14.5-2,0-3-.1-5-.2-1-5.9-1.6-8.8-2.6-14.7ZM539.1,346c4.1.1,6.1.2,10.2.4-.1,3.2-.2,4.7-.3,7.9-4.1-.1-6.1-.2-10.2-.4.1-3.2.2-4.7.3-7.9Z"/>
              </g>
            </g>
          </g>
        </g>
      </g>
    </g>
  </g>
</svg>