<?xml version="1.0" encoding="UTF-8"?>
<svg xmlns="http://www.w3.org/2000/svg" version="1.1" viewBox="0 0 2560 780">
  <defs>
    <style>
      .cls-1 {
        fill: #de0919;
      }

      .cls-2 {
        fill: #fff;
      }

      .cls-3 {
        fill: #02509b;
      }

      .cls-4 {
        fill: #fdea14;
      }
    </style>
  </defs>
  <!-- Generator: Adobe Illustrator 28.7.1, SVG Export Plug-In . SVG Version: 1.2.0 Build 142)  -->
  <g>
    <g id="Livello_1">
      <g>
        <rect class="cls-3" x="-134.1" y="-44" width="2828.1" height="867.9"/>
        <g>
          <polygon class="cls-4" points="1954.7 472.9 571.2 523.4 595.1 377.1 1988.8 326.2 1954.7 472.9"/>
          <polygon class="cls-4" points="2044.4 311.1 494.4 357 513.6 211.1 2065.6 165.1 2044.4 311.1"/>
          <g>
            <path class="cls-3" d="M559.7,282.5l-.9-52.1,32.2-.6.9,51.7c.2,11.8,6.4,16.6,14.9,16.5,8.5-.1,14.5-4.8,14.3-16.3l-.9-52.4,32.2-.6.9,51.5c.6,32.3-18,45.3-46.2,45.8-28.2.5-46.7-12.2-47.2-43.5Z"/>
            <path class="cls-3" d="M662.3,228.5l29.6-.5,34.4,41.2-.7-41.7,31.3-.5,1.7,94.6-28.1.5-35.9-43,.8,43.6-31.3.5-1.7-94.6Z"/>
            <path class="cls-3" d="M767.9,226.7l31.6-.6,1.7,94.6-31.6.6-1.7-94.6Z"/>
            <path class="cls-3" d="M804.2,306.4l16.5-20.4c10.4,7.7,22.2,10.7,33.3,10.5,5.7,0,8.1-1.6,8-4.2v-.3c0-2.7-3-4.1-13.2-6-21.3-4-40-9.7-40.4-29.7v-.3c-.3-18,13.5-32.1,39.6-32.6,18.2-.3,31.8,3.8,42.9,12.2l-15,21.6c-9-6.3-19.8-9-28.5-8.8-4.7,0-6.9,1.7-6.8,4v.3c0,2.6,2.6,4.1,12.7,5.9,24.3,4,40.6,10.8,40.9,29.8v.3c.4,19.9-15.8,32.3-41.2,32.7-19.2.3-36.6-4.8-48.8-15.1Z"/>
            <path class="cls-3" d="M899,271.9v-.3c-.5-28.2,21.2-49.7,49.4-50.2,20.8-.4,35,9.5,43.3,23.8l-25.8,15.7c-3.6-6.7-8.7-11.3-17.4-11.2-10.7.2-17.5,9.6-17.3,21v.3c.2,12.3,7.7,20.8,18.1,20.6,8.9-.2,13.8-5.1,17.6-12.2l26.3,14.3c-7.7,14.2-20.8,25.9-44.3,26.3-26.2.5-49.4-18.9-49.9-48.2Z"/>
            <path class="cls-3" d="M998.3,222.6l31.6-.6,1.7,94.6-31.6.6-1.7-94.6Z"/>
            <path class="cls-3" d="M1065.6,248.2l-27.8.5-.5-26.7,87.3-1.5.5,26.7-27.8.5,1.2,67.8-31.6.6-1.2-67.8Z"/>
            <path class="cls-3" d="M1132,220.3l31.6-.6,1.7,94.6-31.6.6-1.7-94.6Z"/>
            <path class="cls-3" d="M1242,217.7l31.3-.5,41.5,94.5-34.3.6-5.2-12.6-33.1.6-4.6,12.8-33.8.6,38.2-95.9ZM1267.1,277.4l-9-22.8-8.2,23.1,17.3-.3Z"/>
            <path class="cls-3" d="M1317.1,217.1l31.6-.6,1.2,67.5,44.4-.8.5,27-76.1,1.3-1.7-94.6Z"/>
            <path class="cls-3" d="M1400,215.6l31.6-.6,1.2,67.5,44.4-.8.5,27-76.1,1.3-1.7-94.6Z"/>
            <path class="cls-3" d="M1515.9,212.9l31.3-.5,41.5,94.5-34.3.6-5.2-12.6-33.1.6-4.6,12.8-33.8.6,38.2-95.9ZM1541,272.6l-9-22.8-8.2,23.1,17.3-.3Z"/>
            <path class="cls-3" d="M1625.4,211.7l31.6-.6,1.2,67.5,44.4-.8.5,27-76.1,1.3-1.7-94.6Z"/>
            <path class="cls-3" d="M1708.3,210.3l80.7-1.4.5,25.9-49.6.9.2,9.6,46.2-.8.4,22.8-46.2.8.2,10.3,50.3-.9.5,25.9-81.3,1.4-1.7-94.6Z"/>
            <path class="cls-3" d="M1795.5,256.3v-.3c-.5-28.2,21.4-49.7,51.3-50.2,16.2-.3,29.4,4.9,39.8,13.6l-17.3,21.7c-6.3-5.2-13.2-8-21.1-7.9-12.3.2-21,9.8-20.8,22.7v.3c.2,13.4,9.7,22.4,23,22.2,5.4,0,8.4-1,10.8-2.4l-.2-9.5-16.2.3-.4-20.3,45.8-.8.8,43.8c-10.1,8.6-24.3,14.6-41.5,14.9-29.5.5-53.4-18.8-53.9-48.1Z"/>
            <path class="cls-3" d="M1931.6,205.7l31.3-.5,41.5,94.5-34.3.6-5.2-12.6-33.1.6-4.6,12.8-33.8.6,38.2-95.9ZM1956.7,265.4l-9-22.8-8.2,23.1,17.3-.3Z"/>
            <path class="cls-3" d="M676.5,385.9l46.2-.8c16.8-.3,27.5,3.7,34.2,10.2,5.8,5.6,8.9,12.5,9,22.3v.3c.2,13.8-6.7,23.5-18.1,29.2l22.6,31.8-36.1.6-18.3-26.7h-6.8c0,.1.5,27.1.5,27.1l-31.6.6-1.7-94.6ZM722.6,430.1c7.6-.1,12.1-3.6,12-9.4v-.3c-.1-6.1-4.9-9-12.2-8.8l-13.8.2.3,18.5,13.6-.2Z"/>
            <path class="cls-3" d="M773.4,384.2l31.6-.6,1.7,94.6-31.6.6-1.7-94.6Z"/>
            <path class="cls-3" d="M809.7,464l16.5-20.4c10.4,7.7,22.2,10.7,33.3,10.5,5.7,0,8.1-1.6,8-4.2v-.3c0-2.7-3-4.1-13.2-6-21.3-4-40-9.7-40.4-29.7v-.3c-.3-18,13.5-32.1,39.6-32.6,18.2-.3,31.8,3.8,42.9,12.2l-15,21.6c-9-6.3-19.8-9-28.5-8.8-4.7,0-6.9,1.7-6.8,4v.3c0,2.6,2.6,4.1,12.7,5.9,24.3,4,40.6,10.8,40.9,29.8v.3c.4,19.9-15.8,32.3-41.2,32.7-19.2.3-36.6-4.8-48.8-15.1Z"/>
            <path class="cls-3" d="M905.8,381.9l42.6-.7c25.1-.4,42.5,10.5,42.9,32.9v.3c.4,22.8-16.8,35.3-42.3,35.7l-10.3.2.4,25.7-31.6.6-1.7-94.6ZM946.7,427.5c8.1-.1,13.4-3.9,13.3-10.6v-.3c-.1-6.9-5.2-10.3-13.6-10.2l-8.6.2.4,21.1h8.5Z"/>
            <path class="cls-3" d="M1020.9,379.2l31.3-.5,41.5,94.5-34.3.6-5.2-12.6-33.1.6-4.6,12.8-33.8.6,38.2-95.9ZM1046,438.9l-9-22.8-8.2,23.1,17.3-.3Z"/>
            <path class="cls-3" d="M1096,378.6l46.2-.8c16.8-.3,27.5,3.7,34.2,10.2,5.8,5.6,8.9,12.5,9,22.3v.3c.2,13.8-6.7,23.5-18.1,29.2l22.6,31.8-36.1.6-18.3-26.7h-6.8c0,.1.5,27.1.5,27.1l-31.6.6-1.7-94.6ZM1142,422.8c7.6-.1,12.1-3.6,12-9.4v-.3c-.1-6.1-4.9-9-12.2-8.8l-13.8.2.3,18.5,13.6-.2Z"/>
            <path class="cls-3" d="M1192.6,376.9l33-.6,20.8,32.9,19.7-33.6,33-.6,1.7,94.6-31.5.5-.8-46.9-21.2,34h-.5s-22.3-33.3-22.3-33.3l.8,46.9-30.9.5-1.7-94.6Z"/>
            <path class="cls-3" d="M1310.1,374.9l31.6-.6,1.7,94.6-31.6.6-1.7-94.6Z"/>
            <path class="cls-3" d="M1351.5,421.7v-.3c-.5-27.4,21.7-49.7,50.9-50.2,29.2-.5,51.8,20.7,52.3,48.1v.3c.5,27.4-21.7,49.7-50.9,50.2-29.2.5-51.8-20.7-52.3-48.1ZM1422.8,420.5v-.3c-.2-11.2-8.1-21.2-20.2-21-12,.2-19.4,10.3-19.2,21.4v.3c.2,11.2,8.1,21.2,20.2,21,12-.2,19.4-10.3,19.2-21.4Z"/>
            <path class="cls-3" d="M1495.5,419.2v-.3c-.5-28.2,21.2-49.7,49.4-50.2,20.8-.4,35,9.5,43.3,23.8l-25.8,15.7c-3.6-6.7-8.7-11.3-17.4-11.2-10.7.2-17.5,9.6-17.3,21v.3c.2,12.3,7.7,20.8,18.1,20.6,8.9-.2,13.8-5.1,17.6-12.2l26.3,14.3c-7.7,14.2-20.8,25.9-44.3,26.3-26.2.5-49.4-18.9-49.9-48.2Z"/>
            <path class="cls-3" d="M1625.8,368.7l31.3-.5,41.5,94.5-34.3.6-5.2-12.6-33.1.6-4.6,12.8-33.8.6,38.2-95.9ZM1650.9,428.4l-9-22.8-8.2,23.1,17.3-.3Z"/>
            <path class="cls-3" d="M1693.1,448.6l16.5-20.4c10.4,7.7,22.2,10.7,33.3,10.5,5.7,0,8.1-1.6,8-4.2v-.3c0-2.7-3-4.1-13.2-6-21.3-4-40-9.7-40.4-29.7v-.3c-.3-18,13.5-32.1,39.6-32.6,18.2-.3,31.8,3.8,42.9,12.2l-15,21.6c-9-6.3-19.8-9-28.5-8.8-4.7,0-6.9,1.7-6.8,4v.3c0,2.6,2.6,4.1,12.7,5.9,24.3,4,40.6,10.8,40.9,29.8v.3c.4,19.9-15.8,32.3-41.2,32.7-19.2.3-36.6-4.8-48.8-15.1Z"/>
            <path class="cls-3" d="M1820.2,365.3l31.3-.5,41.5,94.5-34.3.6-5.2-12.6-33.1.6-4.6,12.8-33.8.6,38.2-95.9ZM1845.3,425l-9-22.8-8.2,23.1,17.3-.3Z"/>
          </g>
          <g>
            <g>
              <polygon class="cls-4" points="1988.2 535.1 1999.9 495 1957.5 483.5 1783.1 622.2 1988.2 535.1"/>
              <polygon class="cls-1" points="1890.1 670 1910.5 651 1890.1 629.9 1803.3 649 1890.1 670"/>
              <polygon class="cls-4" points="588.6 588.9 560.1 609.1 581.9 638.7 768.6 638.3 588.6 588.9"/>
              <polygon class="cls-1" points="700.9 534.4 680.7 550 688.5 576.3 766.1 583.3 700.9 534.4"/>
            </g>
            <g>
              <path class="cls-1" d="M1784.1,634.5c-2.1-14.8-2.1-25.3,1.8-39,12.6-43.8-19.1-92.5-66.3-94.4-123.3-4.9-246.6-7.8-370-8.7-169.8-1-339.5,1.9-509.2,8.7-47.2,1.9-78.9,50.5-66.3,94.4,3.9,13.7,3.9,24.2,1.8,39h0c-10.8,45.8,26.7,90.2,73.4,88.3,166.2-6.6,332.5-9.4,498.8-8.5,120.9.8,241.7,3.7,362.5,8.5,46.8,1.9,84.2-42.5,73.4-88.3h0Z"/>
              <g>
                <path class="cls-2" d="M949.8,529.7c19.5-.6,39-1.1,58.5-1.6.2,7.4.3,11.1.5,18.5-12,.3-23.9.6-35.9,1,0,2.7.1,4.1.2,6.8,11.1-.3,22.3-.6,33.4-.9.2,6.5.2,9.8.4,16.3-11.1.3-22.3.6-33.4.9,0,2.9.1,4.4.2,7.3,12.1-.3,24.2-.7,36.3-1,.2,7.4.3,11.1.5,18.5-19.5.5-39.1,1-58.6,1.6-.7-22.5-1.4-44.9-2-67.4Z"/>
                <path class="cls-2" d="M1039.8,527.3c10.3-.2,20.6-.4,30.9-.6,14.7-1,31.1,6.8,31.1,23.4,0,0,0,.1,0,.2.6,16.8-15.5,25.9-30.6,25.5-3,0-4.4,0-7.4.1.1,7.3.2,11,.4,18.3-9.1.2-13.7.3-22.8.5-.5-22.5-1-44.9-1.5-67.4ZM1069.6,559.8c5.9-.1,9.7-2.8,9.6-7.6,0,0,0-.1,0-.2,0-4.9-3.8-7.3-9.8-7.2-2.5,0-3.8,0-6.3.1.1,6,.2,9,.3,15,2.5,0,3.7,0,6.2-.1Z"/>
                <path class="cls-2" d="M1123.4,525.3c9.1-.1,13.6-.2,22.7-.3,9.9,22.5,19.8,45,29.6,67.6-9.9,0-14.8.1-24.7.3-1.5-3.6-2.2-5.4-3.7-9-9.6.1-14.3.2-23.9.3-1.4,3.6-2,5.5-3.4,9.1-9.7.1-14.6.2-24.4.4,9.2-22.8,18.5-45.6,27.8-68.3ZM1141.3,567.9c-2.6-6.5-3.9-9.8-6.5-16.3-2.4,6.6-3.6,9.9-6,16.5,5,0,7.5-.1,12.5-.2Z"/>
                <path class="cls-2" d="M1177.9,525.2c11.2,0,22.4-.2,33.5-.3,12.2,0,19.9,2.9,24.7,7.6,4.1,4,6.3,9,6.3,16,0,0,0,.1,0,.2,0,9.8-5.1,16.7-13.4,20.7,6.4,9.1,9.6,13.7,16,22.9-10.4,0-15.6,0-26,.1-5.2-7.7-7.8-11.5-13-19.2-2,0-2.9,0-4.9,0,0,7.7,0,11.6.1,19.3-9.1,0-13.7.1-22.8.2-.2-22.5-.4-44.9-.6-67.4ZM1210.9,557c5.5,0,8.8-2.5,8.8-6.6,0,0,0-.1,0-.2,0-4.3-3.5-6.4-8.7-6.4-4,0-6,0-10,0,0,5.3,0,7.9,0,13.2,3.9,0,5.9,0,9.9,0Z"/>
                <path class="cls-2" d="M1265.5,543.8c-8.1,0-12.1,0-20.2,0,0-7.6,0-11.4,0-19.1,21.1,0,42.2,0,63.3,0,0,7.6,0,11.4,0,19.1-8.1,0-12.1,0-20.2,0,0,16.1,0,32.2,0,48.3-9.1,0-13.7,0-22.8,0,0-16.1,0-32.2,0-48.3Z"/>
                <path class="cls-2" d="M1313.8,524.7c19.5,0,39,.2,58.5.3,0,7.4,0,11.1-.2,18.5-12-.1-23.9-.2-35.9-.2,0,2.7,0,4.1,0,6.8,11.1,0,22.3.1,33.4.2,0,6.5,0,9.8-.1,16.3-11.1,0-22.3-.2-33.4-.2,0,2.9,0,4.4,0,7.3,12.1,0,24.2.1,36.3.2,0,7.4,0,11.1-.2,18.5-19.5-.2-39.1-.3-58.6-.3,0-22.5.1-44.9.2-67.4Z"/>
                <path class="cls-2" d="M1376.2,559c0,0,0-.1,0-.2.1-20.1,17.3-34.9,36.8-34.8,12.7,0,24.7,6.5,30.8,17.9-7.6,4.2-11.4,6.4-19,10.6-2.5-4.8-6.1-8.3-12.3-8.3-7.7,0-12.9,6.5-13,14.6,0,0,0,.1,0,.2,0,8.8,5.1,15,12.6,15.1,6.4,0,10.1-3.3,13-8.3,7.5,4.3,11.2,6.5,18.7,10.8-7.2,11.7-18.8,17.8-32.5,17.8-19.2-.1-35.3-15.7-35-35.3Z"/>
                <path class="cls-2" d="M1449.1,526c9.2.1,13.8.2,22.9.4-.4,22.5-.8,44.9-1.2,67.4-9.1-.2-13.7-.2-22.8-.4.3-22.5.7-44.9,1-67.4Z"/>
                <path class="cls-2" d="M1480.1,526.5c10.3.2,20.6.4,30.9.6,14.7-.4,30.8,8,30.1,24.7,0,0,0,.1,0,.2-.1,16.8-16.6,25.3-31.6,24.2-3,0-4.4,0-7.4-.2-.2,7.3-.2,11-.4,18.3-9.1-.2-13.7-.3-22.8-.4.4-22.5.8-44.9,1.2-67.4ZM1508.5,560.1c5.9.1,9.8-2.4,9.9-7.2,0,0,0-.1,0-.2.1-4.9-3.5-7.5-9.5-7.6-2.5,0-3.8,0-6.3-.1-.1,6-.2,9-.3,15,2.5,0,3.7,0,6.2.1Z"/>
                <path class="cls-2" d="M1563.6,527.9c9.1.2,13.6.4,22.7.6,9,22.9,17.9,45.8,26.8,68.7-9.9-.3-14.8-.5-24.7-.7-1.3-3.7-2-5.5-3.3-9.2-9.6-.3-14.3-.4-23.9-.6-1.5,3.6-2.2,5.4-3.7,9-9.7-.3-14.6-.4-24.4-.6,10.1-22.4,20.3-44.8,30.5-67.2ZM1579.8,571.2c-2.3-6.6-3.5-9.9-5.8-16.5-2.7,6.5-4,9.7-6.7,16.2,5,.1,7.5.2,12.5.3Z"/>
                <path class="cls-2" d="M919.1,620.8c9-.3,13.5-.4,22.5-.7,10.3,22.3,20.5,44.6,30.6,67-9.8.3-14.7.4-24.5.7-1.5-3.6-2.3-5.4-3.9-8.9-9.5.3-14.2.5-23.7.8-1.3,3.7-1.9,5.5-3.2,9.2-9.7.3-14.5.5-24.1.8,8.7-23,17.4-45.9,26.2-68.8ZM937.8,663.1c-2.7-6.5-4-9.7-6.7-16.2-2.3,6.6-3.4,9.9-5.7,16.6,5-.2,7.4-.2,12.4-.4Z"/>
                <path class="cls-2" d="M973.2,619.6c9.1-.3,13.6-.4,22.7-.6l1.3,48.1c10.6-.3,21.2-.5,31.8-.8.2,7.7.3,11.6.5,19.3-18.1.4-36.3.9-54.4,1.4-.6-22.5-1.3-44.9-1.9-67.4Z"/>
                <path class="cls-2" d="M1056.7,651.4c0,0,0-.1,0-.2-.5-19.9,16-35.4,35.4-35.8,12.7-.3,24.7,5.8,31.1,17-7.4,4.5-11.1,6.7-18.6,11.2-2.6-4.8-6.2-8.1-12.5-8-7.7.1-12.6,6.9-12.4,15,0,0,0,.1,0,.2.2,8.8,5.5,14.8,13,14.7,6.4-.1,9.9-3.6,12.6-8.7,7.5,4.1,11.3,6.1,18.8,10.2-6.7,11.9-18.1,18.4-31.7,18.7-19.2.5-35.5-14.8-35.8-34.3Z"/>
                <path class="cls-2" d="M1124.8,650.2c0,0,0-.1,0-.2-.3-20.2,17.2-35.4,36.7-35.6,19.5-.2,37.2,14.5,37.3,34.6,0,0,0,.1,0,.2.1,20.1-17.2,35.3-36.7,35.5-19.4.2-37-14.4-37.3-34.5ZM1176,649.6c0,0,0-.1,0-.2,0-8-5.7-15.2-14.4-15.1-8.6,0-14,7.3-13.9,15.2,0,0,0,.1,0,.2,0,8,5.7,15.1,14.4,15,8.6,0,14-7.3,13.9-15.2Z"/>
                <path class="cls-2" d="M1204.8,615.5c8.5,0,12.8,0,21.3-.1,8.1,9.9,16.2,19.8,24.3,29.7,0-9.9,0-19.8,0-29.8,9,0,13.5,0,22.6,0,0,22.5,0,44.9,0,67.4-8,0-12.1,0-20.1,0-8.4-10.4-16.8-20.7-25.3-31,0,10.4.1,20.7.2,31.1-9,0-13.4,0-22.4.1-.2-22.5-.3-44.9-.5-67.4Z"/>
                <path class="cls-2" d="M1279.1,649.1v-.2c0-19.9,16.7-35,36.2-35.1,12.7,0,24.6,6.3,30.7,17.7-7.5,4.3-11.3,6.5-18.8,10.8-2.5-4.8-6.1-8.2-12.3-8.2-7.7,0-12.7,6.6-12.7,14.7,0,0,0,.1,0,.2,0,8.8,5.2,14.9,12.6,15,6.4,0,10-3.4,12.8-8.4,7.5,4.2,11.2,6.4,18.6,10.6-7,11.8-18.5,18-32.1,18-19.2,0-35.2-15.6-35.1-35Z"/>
                <path class="cls-2" d="M1347.2,649.3c0,0,0-.1,0-.2.1-20.2,17.9-35,37.5-34.9,19.5.2,36.8,15.2,36.6,35.4,0,0,0,.1,0,.2-.3,20.1-18,34.9-37.5,34.7-19.4-.2-36.7-15.2-36.6-35.2ZM1398.4,649.8c0,0,0-.1,0-.2,0-8-5.4-15.3-14.1-15.4-8.6,0-14.1,7-14.2,14.9,0,0,0,.1,0,.2,0,8,5.4,15.3,14.1,15.3,8.6,0,14.1-7,14.2-14.9Z"/>
                <path class="cls-2" d="M1427.9,616.2c11.1.2,22.2.3,33.2.5,12.1.2,19.7,3.3,24.3,8.1,4,4.1,6,9.2,5.9,16.1,0,0,0,.1,0,.2-.2,9.8-5.5,16.6-13.8,20.3,6.1,9.3,9.2,13.9,15.3,23.2-10.3-.2-15.5-.3-25.8-.5-5-7.8-7.5-11.7-12.4-19.5-1.9,0-2.9,0-4.8,0-.1,7.7-.2,11.6-.3,19.3-9-.1-13.6-.2-22.6-.3.3-22.5.6-44.9.9-67.4ZM1459.9,648.8c5.4,0,8.8-2.3,8.8-6.4,0,0,0-.1,0-.2,0-4.3-3.3-6.5-8.5-6.6-4,0-5.9,0-9.9-.2,0,5.3-.1,7.9-.2,13.2,3.9,0,5.9,0,9.8.2Z"/>
                <path class="cls-2" d="M1490.6,674.6c4.9-5.6,7.4-8.5,12.4-14.1,7.2,5.7,15.6,8.2,23.5,8.4,4.1,0,5.8-.9,5.9-2.8,0,0,0-.1,0-.2,0-1.9-2.2-3.2-9.3-4.6-11.8-2.4-27.9-7.6-28.1-22.3,0,0,0-.1,0-.2.8-14.9,15.8-22.8,29.3-22.1,10.4.5,21.9,3,30.5,10-4.6,6-6.9,9-11.4,14.9-6.3-4.8-13.9-7-20.2-7.1-3.4,0-5,1-5,2.7,0,0,0,.1,0,.2,0,1.8,1.8,3,8.9,4.5,12.3,2.4,28.5,7.2,28.4,22.5,0,0,0,.1,0,.2.6,16.1-17.4,22.3-30.4,22.1-12.4-.2-25-3.8-34.4-12.1Z"/>
                <path class="cls-2" d="M1559.5,652.8c0,0,0-.1,0-.2.5-20.2,18.6-34.7,38.1-34.1,19.5.6,36.5,15.9,35.9,36.1,0,0,0,.1,0,.2-.7,20.1-18.7,34.5-38.1,34-19.4-.6-36.4-15.9-35.9-36ZM1610.7,654.2c0,0,0-.1,0-.2.2-8-5.1-15.4-13.8-15.6-8.6-.3-14.3,6.7-14.5,14.6,0,0,0,.1,0,.2-.2,8,5.1,15.4,13.8,15.6,8.6.3,14.2-6.7,14.5-14.6Z"/>
                <path class="cls-2" d="M1639.9,635.7c.2-5.8.3-8.7.5-14.4,9.9.3,14.8.5,24.7.9-.2,5.8-.3,8.7-.5,14.4-2.6,10.6-5.3,21.1-7.9,31.7-4.4-.2-6.6-.2-11-.4-1.9-10.7-3.8-21.5-5.7-32.2ZM1639.7,671.3c9,.3,13.5.5,22.4.8l-.6,17.3c-9-.3-13.4-.5-22.4-.8.2-6.9.3-10.4.6-17.3Z"/>
              </g>
            </g>
          </g>
        </g>
      </g>
    </g>
  </g>
</svg>