<?xml version="1.0" encoding="UTF-8"?>
<svg xmlns="http://www.w3.org/2000/svg" version="1.1" viewBox="0 0 400 200">
  <defs>
    <style>
      .cls-1 {
        fill: #02509b;
      }

      .cls-2 {
        fill: #fdea14;
      }
    </style>
  </defs>
  <!-- Generator: Adobe Illustrator 28.7.1, SVG Export Plug-In . SVG Version: 1.2.0 Build 142)  -->
  <g>
    <g id="Livello_1">
      <g id="Raggruppa_61">
        <path id="Tracciato_226" class="cls-1" d="M348.5,101.1c0-20.7,16.8-37.5,37.5-37.5h0v-10.5c-4.4,0-8-3.6-8-8s3.6-8,8-8h0v-6.6c-4.4,0-8-3.6-8-8s3.6-8,8-8h0V5.6H14v9c4.4,0,7.9,3.7,7.8,8.1,0,4.3-3.5,7.7-7.8,7.8v6.6c4.4,0,7.9,3.7,7.8,8.1,0,4.3-3.5,7.7-7.8,7.8v10.5c20.7.6,37,17.9,36.4,38.6-.6,19.9-16.5,35.8-36.4,36.4v9.2c4.4,0,7.9,3.7,7.8,8.1,0,4.3-3.5,7.7-7.8,7.8v6.6c4.4.1,7.9,3.8,7.8,8.2-.1,4.2-3.5,7.7-7.8,7.8v8.2h372.1v-8.1c-4.4,0-8-3.6-8-8s3.6-8,8-8v-6.6c-4.4,0-8-3.6-8-8s3.6-8,8-8v-9.1c-20.7,0-37.5-16.8-37.5-37.5"/>
        <path id="Tracciato_227" class="cls-2" d="M147.1,162.2l11-12.8c5.1,4.1,9.9,6.5,14.7,6.5s7.5-2.5,7.5-5.7v-.2c0-3.5-2.8-5.7-7-5.7s-6.3,1.5-9.1,3.7l-12-5.9,1.7-30.9h42.9v15.7h-28.1l-.4,7.7c3.4-2.2,7.3-3.3,11.3-3.2,9.9,0,19.9,6.3,19.9,18.8v.2c0,13.8-11.3,21.6-26.4,21.6s-19.3-3.8-25.9-9.8"/>
        <path id="Tracciato_228" class="cls-2" d="M244.7,130.3c-2.1-2.5-5.2-3.9-8.4-3.8-3.2-.2-6.3,1.5-7.8,4.3h11.1v8.7h-12.7v2.7h12.8v8.7h-11.1c1.5,3.1,4.7,4.9,8.2,4.7,3.3,0,6.5-1.6,8.6-4.2l11,12.2c-4.7,5.5-11.6,8.5-20.7,8.5-14.5,0-23.9-8.5-26.3-20.7h-6v-9h5.1v-2.9h-5.1v-9h6.3c2.5-11.1,11.7-20.4,26.4-20.4s15.4,3.1,19.9,8.2l-11.1,12.1Z"/>
        <path id="Tracciato_229" class="cls-2" d="M350.3,25.4l2.7,8.4h8.8l-7.1,5.2,2.7,8.4-7.1-5.2-7.1,5.2,2.7-8.4-7.1-5.2h8.8l2.7-8.4Z"/>
        <path id="Tracciato_230" class="cls-2" d="M48,25.4l2.7,8.4h8.8l-7.1,5.2,2.7,8.4-7.1-5.2-7.1,5.2,2.7-8.4-7.1-5.2h8.8l2.7-8.4Z"/>
        <path id="Tracciato_231" class="cls-2" d="M350.3,148.9l2.7,8.4h8.8l-7.1,5.2,2.7,8.4-7.1-5.2-7.1,5.2,2.7-8.4-7.1-5.2h8.8l2.7-8.4Z"/>
        <path id="Tracciato_232" class="cls-2" d="M48,148.9l2.7,8.4h8.8l-7.1,5.2,2.7,8.4-7.1-5.2-7.1,5.2,2.7-8.4-7.1-5.2h8.8l2.7-8.4Z"/>
        <path id="Tracciato_233" class="cls-2" d="M115,25.3h17.7c4.4,0,7.1,1,9,2.8,1.3,1.3,2,3.1,1.9,4.9h0c0,3.8-2.3,6.1-5.6,7.3,4.1,1.2,6.7,3.3,6.7,7.7h0c0,5.1-4.1,8.8-12.1,8.8h-17.5v-31.6ZM129.8,37.7c2.3,0,3.3-.8,3.3-2.2h0c0-1.5-1.1-2.3-3.4-2.3h-4.6v4.4h4.6ZM130.5,48.9c2.3,0,3.5-.9,3.5-2.3h0c0-1.4-1.1-2.4-3.4-2.4h-5.3v4.7h5.3Z"/>
        <path id="Tracciato_234" class="cls-2" d="M146.6,42.7v-17.4h10.7v17.3c0,3.9,2,5.6,4.9,5.6s4.9-1.5,4.9-5.4v-17.5h10.7v17.2c0,10.8-6.3,15-15.7,15s-15.5-4.3-15.5-14.8"/>
        <path id="Tracciato_235" class="cls-2" d="M180.4,41.1h0c0-9.2,7.5-16.5,17.3-16.5s17.2,7.2,17.2,16.4h0c0,9.2-7.5,16.5-17.3,16.5s-17.2-7.2-17.2-16.4M204.2,41.1h0c.2-3.8-2.6-7-6.4-7.2,0,0-.2,0-.3,0-3.7,0-6.6,3.1-6.5,6.8,0,0,0,.2,0,.3h0c-.2,3.8,2.6,7,6.4,7.2,0,0,.2,0,.3,0,3.7,0,6.6-3.1,6.5-6.8,0,0,0-.2,0-.3"/>
        <path id="Tracciato_236" class="cls-2" d="M217.7,25.3h9.9l11.2,13.9v-13.9h10.5v31.6h-9.4l-11.7-14.6v14.6h-10.5v-31.6Z"/>
        <path id="Tracciato_237" class="cls-2" d="M252.1,41.1h0c0-9.2,7.5-16.5,17.3-16.5s17.2,7.2,17.2,16.4h0c0,9.2-7.5,16.5-17.3,16.5s-17.2-7.2-17.2-16.4M275.9,41.1h0c.2-3.8-2.6-7-6.4-7.2,0,0-.2,0-.3,0-3.7,0-6.6,3.1-6.5,6.8,0,0,0,.2,0,.3h0c-.2,3.8,2.6,7,6.4,7.2,0,0,.2,0,.3,0,3.7,0,6.6-3.1,6.5-6.8,0,0,0-.2,0-.3"/>
        <path id="Tracciato_238" class="cls-2" d="M100.1,91.4l5.6-6.7c3.2,2.4,7.1,3.7,11,3.7,1.9,0,2.7-.5,2.7-1.4h0c0-1-1-1.5-4.4-2.2-7.1-1.4-13.3-3.5-13.3-10.1h0c0-6.1,4.7-10.7,13.4-10.7s10.6,1.4,14.2,4.3l-5.1,7.1c-2.8-2-6.1-3.1-9.5-3.1-1.6,0-2.3.5-2.3,1.3h0c0,.9.9,1.5,4.2,2.1,8.1,1.5,13.5,3.8,13.5,10.2h0c0,6.7-5.5,10.8-13.9,10.8s-12.2-1.8-16.2-5.3"/>
        <path id="Tracciato_239" class="cls-2" d="M132,80.4h0c0-9.1,7.1-16.5,16.2-16.5.2,0,.4,0,.6,0,5.9-.2,11.5,2.9,14.3,8.2l-8.7,5.1c-.9-2.3-3.2-3.9-5.7-3.8-3.6,0-5.9,3.1-5.9,6.9h0c0,4.2,2.4,7.1,5.9,7.1s4.6-1.6,5.9-4l8.7,4.9c-2.7,4.7-7.1,8.5-14.9,8.5-8.9.2-16.2-6.9-16.4-15.8,0-.2,0-.4,0-.6"/>
        <path id="Tracciato_240" class="cls-2" d="M163.6,80.4h0c0-9.2,7.5-16.5,17.3-16.5s17.2,7.2,17.2,16.4h0c0,9.2-7.5,16.5-17.3,16.5s-17.2-7.2-17.2-16.4M187.5,80.4h0c.2-3.8-2.6-7-6.4-7.2,0,0-.2,0-.3,0-3.7,0-6.6,3.1-6.5,6.8,0,0,0,.2,0,.3h0c-.2,3.8,2.6,7,6.4,7.2,0,0,.2,0,.3,0,3.7,0,6.6-3.1,6.5-6.8,0,0,0-.2,0-.3"/>
        <path id="Tracciato_241" class="cls-2" d="M201,64.6h9.9l11.2,13.9v-13.9h10.5v31.6h-9.4l-11.7-14.6v14.6h-10.5v-31.6Z"/>
        <path id="Tracciato_242" class="cls-2" d="M244.2,73.5h-9.3v-8.9h29.1v8.9h-9.3v22.6h-10.5v-22.6Z"/>
        <path id="Tracciato_243" class="cls-2" d="M264.3,80.4h0c0-9.2,7.5-16.5,17.3-16.5s17.2,7.2,17.2,16.4h0c0,9.2-7.5,16.5-17.3,16.5s-17.2-7.2-17.2-16.4M288.1,80.4h0c.2-3.8-2.6-7-6.4-7.2,0,0-.2,0-.3,0-3.7,0-6.6,3.1-6.5,6.8,0,0,0,.2,0,.3h0c-.2,3.8,2.6,7,6.4,7.2,0,0,.2,0,.3,0,3.7,0,6.6-3.1,6.5-6.8,0,0,0-.2,0-.3"/>
      </g>
    </g>
  </g>
</svg>