<svg id="Group_6020" data-name="Group 6020" xmlns="http://www.w3.org/2000/svg" xmlns:xlink="http://www.w3.org/1999/xlink" width="214.889" height="71.783" viewBox="0 0 214.889 71.783">
  <defs>
    <clipPath id="clip-path">
      <rect id="Rectangle_2502" data-name="Rectangle 2502" width="214.889" height="71.783" fill="none"/>
    </clipPath>
    <clipPath id="clip-path-2">
      <path id="Path_3087" data-name="Path 3087" d="M4.074,32.617c0,14.129,43.592,25.584,97.36,25.584s97.36-11.456,97.36-25.584S155.2,7.03,101.434,7.03,4.074,18.486,4.074,32.617" transform="translate(-4.074 -7.03)" fill="none"/>
    </clipPath>
    <linearGradient id="linear-gradient" x1="-0.052" y1="1.063" x2="-0.054" y2="0.261" gradientUnits="objectBoundingBox">
      <stop offset="0" stop-color="#0099d6"/>
      <stop offset="0.156" stop-color="#0099d6"/>
      <stop offset="0.239" stop-color="#1da4da"/>
      <stop offset="0.457" stop-color="#65bfe7"/>
      <stop offset="0.639" stop-color="#9ad3f0"/>
      <stop offset="0.775" stop-color="#bae0f5"/>
      <stop offset="0.85" stop-color="#c7e5f8"/>
      <stop offset="1" stop-color="#c7e5f8"/>
    </linearGradient>
  </defs>
  <g id="Group_6021" data-name="Group 6021">
    <g id="Group_6020-2" data-name="Group 6020" clip-path="url(#clip-path)">
      <path id="Path_3083" data-name="Path 3083" d="M183.215,14.244c-20.245-5.292-47.154-8.208-75.771-8.208S51.919,8.952,31.676,14.244C11.25,19.583,0,26.761,0,34.457S11.25,49.331,31.676,54.67c20.243,5.292,47.152,8.208,75.768,8.208s55.525-2.916,75.771-8.208c20.426-5.339,31.674-12.517,31.674-20.213s-11.248-14.874-31.674-20.213" transform="translate(0 8.905)" fill="#fff"/>
      <path id="Path_3084" data-name="Path 3084" d="M214.17,34.189c0,15.448-47.9,27.971-106.994,27.971S.182,49.637.182,34.189,48.084,6.218,107.176,6.218,214.17,18.74,214.17,34.189" transform="translate(0.269 9.173)" fill="#223d79"/>
      <path id="Path_3085" data-name="Path 3085" d="M210.521,32.381c0,14.173-46.869,25.664-104.687,25.664S1.15,46.554,1.15,32.381,48.019,6.717,105.834,6.717s104.687,11.49,104.687,25.664" transform="translate(1.697 9.909)" fill="#02509b"/>
      <path id="Path_3086" data-name="Path 3086" d="M170.564,14.4c-18.416-4.839-42.894-7.505-68.929-7.505S51.122,9.559,32.706,14.4C14.156,19.272,3.938,25.814,3.938,32.817S14.156,46.361,32.706,51.235C51.122,56.074,75.6,58.74,101.635,58.74s50.513-2.666,68.929-7.505c18.55-4.874,28.768-11.416,28.768-18.419S189.113,19.272,170.564,14.4" transform="translate(5.81 10.169)" fill="#fff"/>
    </g>
  </g>
  <g id="Group_6023" data-name="Group 6023" transform="translate(10.084 17.401)">
    <g id="Group_6022" data-name="Group 6022" clip-path="url(#clip-path-2)">
      <rect id="Rectangle_2503" data-name="Rectangle 2503" width="194.72" height="51.171" transform="translate(0 0)" fill="url(#linear-gradient)"/>
    </g>
  </g>
  <g id="Group_6025" data-name="Group 6025">
    <g id="Group_6024" data-name="Group 6024" clip-path="url(#clip-path)">
      <path id="Path_3088" data-name="Path 3088" d="M158.814,34.684a7.281,7.281,0,0,0-1.936-.265,8.341,8.341,0,0,0-3.956.993,12.115,12.115,0,0,0-4.693-.993,11.274,11.274,0,0,0-2.394.265H136.42c-.04-.012-.079-.027-.116-.035l-.193-.054-.2-.045c-.186-.035-.369-.042-.55-.059l.468-2.965-3.547-1.55a10.7,10.7,0,0,0-4.324-.829,13.985,13.985,0,0,0-11.064,5.79,10.8,10.8,0,0,0-3.876-.7c-.089,0-.193.017-.287.017a4.849,4.849,0,0,0,.718-2.512v-.213l-.017-.2c-.052-.483-.062-1.151-.072-1.852a11.842,11.842,0,0,0,9.03-8.171,11.687,11.687,0,0,0-.307-7.616,4.741,4.741,0,0,0,.369-1.881,4.873,4.873,0,0,0-1.485-3.453,4.583,4.583,0,0,0-1.324-.906,8.634,8.634,0,0,0-1.532-1.478l-.144-.161s-.072.067-.218-.1c-.307-.205-.55-.344-.668-.411l-.22-.146c-.874-.535-.772-.639-.849-.745a4.494,4.494,0,0,0-2.4-2.77,4.813,4.813,0,0,0-3.428-.218,7.55,7.55,0,0,0-2.337-.418,7.056,7.056,0,0,0-3.819,1.124L103.558,0c0-.042-5.361,5.131-5.361,5.131-7.542,7.28-15.723,7.416-16.936,7.384l-.087-.015c-.03,0-.431,0-.431,0a4.815,4.815,0,0,0-3.5,1.5c-.225-.022-.45-.052-.676-.052a10.094,10.094,0,0,0-2.879-.849,4.773,4.773,0,0,1-1.458-.324l-.285-.364-.53-.369a4.7,4.7,0,0,0-6.371.891,6.383,6.383,0,0,0-1.054,1.738A9.4,9.4,0,0,0,59.454,20.3a5.588,5.588,0,0,0,1.327,5.21A5.33,5.33,0,0,0,62.957,26.8a4.974,4.974,0,0,0,1.319,1.139,5.163,5.163,0,0,0,2.475.725,5.562,5.562,0,0,0,5.208.215,4.183,4.183,0,0,0,.906.413,4.928,4.928,0,0,0,3.327-.042l0,.007a4.961,4.961,0,0,0,4.753,1.079,4.616,4.616,0,0,0-.116,1.928,4.728,4.728,0,0,0,.785,1.98,8.231,8.231,0,0,0-2.079.23H66.7a7.643,7.643,0,0,0-1.886-.248,8.348,8.348,0,0,0-4.448,1.277,6.908,6.908,0,0,0-.829-.5l-.587-.292-.913-.235a7.711,7.711,0,0,0-3.876,0h-8a11.478,11.478,0,0,0-2.255-.248c-.124,0-.248.027-.381.027a7.018,7.018,0,0,0-1.609-3.723,7.3,7.3,0,0,0-5.587-2.53,8.085,8.085,0,0,0-5.535,2.314,15.1,15.1,0,0,0-5.923-1.059H16.04l-.673,4.21L12.612,50.914,11.7,56.7H38.461a12.494,12.494,0,0,0,2.074.233l-.606,3.21,6.032-.022,4.923-.01,4.2-.01.574-3.275a8.421,8.421,0,0,0,2.923-1.092,7.429,7.429,0,0,0,.775.453l.47.2.963.309a7.953,7.953,0,0,0,1.918.25,8.4,8.4,0,0,0,1.983-.25h43.874v-.022a11.118,11.118,0,0,0,2.446.272,11.3,11.3,0,0,0,6.686-2.124,10.811,10.811,0,0,0,6.908,2.364,12.117,12.117,0,0,0,4.371-.837c.03.012.04.03.064.037l.4.178,1.017.322a7.953,7.953,0,0,0,1.923.252,8.535,8.535,0,0,0,1.985-.252h8.411a12.594,12.594,0,0,0,2.5.252,11.217,11.217,0,0,0,5.245-1.3,6.288,6.288,0,0,0,.9.54l.423.191,1.02.317a7.8,7.8,0,0,0,1.916.252,8.629,8.629,0,0,0,1.99-.252h9.812l.673-4.223,1.926-12.211.913-5.777ZM69.786,29.431c-.057,0-.109-.012-.161,0-.079,0-.156.007-.228,0Z" transform="translate(17.255 0)" fill="#fff"/>
      <path id="Path_3089" data-name="Path 3089" d="M68.275,26.08c-.02.007-.047-.01-.072-.01a.752.752,0,0,1-.129.01Zm88.979,8.9a5.832,5.832,0,0,0-1.733-.255,6.494,6.494,0,0,0-3.854,1.26,10.241,10.241,0,0,0-4.8-1.26,9.577,9.577,0,0,0-2.839.426l.027-.171h-9.243a5.732,5.732,0,0,0-1.688-.255,6.82,6.82,0,0,0-1.413.146l.23-1.47.366-2.334-2.171-.943a8.692,8.692,0,0,0-3.54-.666,12.065,12.065,0,0,0-10.352,6.369,7.972,7.972,0,0,0-4.592-1.29,9.67,9.67,0,0,0-2.906.47c.04-.191.106-.364.139-.562a5.457,5.457,0,0,0-.02-1.668,3.174,3.174,0,0,0,1.448-2.661V30l-.015-.124a31.665,31.665,0,0,1-.057-3.522,10.14,10.14,0,0,0,9.087-7.159,9.953,9.953,0,0,0-.547-7.181,3.253,3.253,0,0,0,.532-1.8,3.138,3.138,0,0,0-.948-2.228,3.081,3.081,0,0,0-1.191-.733,7.514,7.514,0,0,0-2.3-2.052,4.753,4.753,0,0,1-1.822-1.649l-.02-.074a2.823,2.823,0,0,0-1.53-1.9,3.293,3.293,0,0,0-2.733.074,5.273,5.273,0,0,0-2.329-.54A5.331,5.331,0,0,0,103.3,2.131a5.012,5.012,0,0,0-1.953.356l-.166-.8L97.988,4.743c-8.433,8.151-17.505,7.916-18.332,7.866l-.069-.01c-.037-.007-.243-.007-.243-.007a3.18,3.18,0,0,0-2.78,1.678,3.265,3.265,0,0,0-1.762-.2,7.363,7.363,0,0,0-2.7-.876,5.058,5.058,0,0,1-2.421-.71l-.181-.265-.119-.087-.045-.059c-.037-.042-.29-.225-.29-.225a3,3,0,0,0-4.069.537,5.026,5.026,0,0,0-.99,1.874,7.727,7.727,0,0,0-4.27,4.871,3.78,3.78,0,0,0,.9,3.545,3.508,3.508,0,0,0,1.96,1,3.534,3.534,0,0,0,1.171,1.156,3.6,3.6,0,0,0,2.171.49,3.466,3.466,0,0,0,2.282.748,3.955,3.955,0,0,0,2.483-.943,3.064,3.064,0,0,0,1.359.926,3.142,3.142,0,0,0,3.22-.683,2.985,2.985,0,0,0,.705.993,3.158,3.158,0,0,0,4.089.186c.916-.579,3.443-2.592,5.451-8.243a34.133,34.133,0,0,0,12.723-5.52,16.574,16.574,0,0,0,7.295,6.418,22.216,22.216,0,0,0-1.557,6.866c-3.814-.762-10.81-1.406-20.436.866l.2-.037a3.088,3.088,0,1,0,.946,6.1l.089-.02.092-.022A47.9,47.9,0,0,1,98.2,31.644a5.778,5.778,0,0,0-.651,1.874,5.5,5.5,0,0,0-.037,1.351,6.218,6.218,0,0,0-5.161.522,5.823,5.823,0,0,0-3.106-.856,6.245,6.245,0,0,0-1.7.25H83.825l.015-.092-3.413-.149a6.26,6.26,0,0,0-2.025.24H65.136a6.04,6.04,0,0,0-1.686-.25,6.525,6.525,0,0,0-4.483,1.8,5.691,5.691,0,0,0-4.213-1.8,6.567,6.567,0,0,0-1.757.25H44.96l-.02.072a10.408,10.408,0,0,0-2.4-.322,9.826,9.826,0,0,0-2.386.319c.025-.131.079-.267.1-.411a5.276,5.276,0,0,0-1.181-4.29,5.38,5.38,0,0,0-4.106-1.847,6.252,6.252,0,0,0-5.084,2.827A11.272,11.272,0,0,0,23.5,29.557H16.346l-.411,2.582L13.178,49.577l-.562,3.537H36.908l.012-.121a10.041,10.041,0,0,0,2.658.374,9.682,9.682,0,0,0,1.968-.225l-.629,3.408,3.683-.015,4.926-.01,2.554-.007L52.525,54l.109-.646c.084,0,.173.017.248.017a6.45,6.45,0,0,0,4.381-1.733,5.511,5.511,0,0,0,4.084,1.733,6.464,6.464,0,0,0,1.777-.252H105.54l.1-.683a8.3,8.3,0,0,0,4,.936,9.28,9.28,0,0,0,6.775-2.822,1.268,1.268,0,0,1,.082.119,8.684,8.684,0,0,0,6.735,2.941,10.432,10.432,0,0,0,4.087-.844l.455-.188a5.675,5.675,0,0,0,3.23.985,6.563,6.563,0,0,0,1.777-.257h8.374l.02-.129a10.183,10.183,0,0,0,2.723.386,9.085,9.085,0,0,0,5.4-1.755,5.477,5.477,0,0,0,4.1,1.755,6.556,6.556,0,0,0,1.772-.257h8.371l.408-2.574,1.926-12.215.557-3.532Z" transform="translate(18.612 1.643)" fill="#14438e"/>
      <path id="Path_3090" data-name="Path 3090" d="M20.571,21.91a2.455,2.455,0,0,0,2.267-2.218c.235-1.52-.579-2.181-1.889-2.1L20.264,21.9Zm.8,9.376L19.9,24.024l-.05.042c-.111.844-.208,1.705-.337,2.564l-.743,4.656H14.061l2.762-17.446h4.552c4.089,0,6.864,1.2,6.134,5.8a5.357,5.357,0,0,1-3.394,4.384l2.364,7.262Z" transform="translate(20.744 20.419)" fill="#fce914"/>
      <path id="Path_3091" data-name="Path 3091" d="M21.71,15.98a3.231,3.231,0,0,1,3.035-2.646,2.2,2.2,0,0,1,2.275,2.611,3.247,3.247,0,0,1-3.064,2.691A2.221,2.221,0,0,1,21.71,15.98M19.544,32.035l1.933-12.225h4.535L24.074,32.035Z" transform="translate(28.833 19.671)" fill="#fce914"/>
      <path id="Path_3092" data-name="Path 3092" d="M24.013,23.926a2.98,2.98,0,0,0,2.067,1.267c.386,0,.9-.183.973-.629s-.272-.691-1.02-.968c-1.691-.624-2.948-1.554-2.624-3.639.411-2.517,2.715-4.106,5.562-4.106a7.039,7.039,0,0,1,3.564.993l-2.067,3.295c-.46-.47-.968-1.079-1.728-1.079a.756.756,0,0,0-.767.609c-.1.619.735.955,1.183,1.129,1.54.619,2.725,1.5,2.406,3.493a5.4,5.4,0,0,1-5.555,4.275A7.7,7.7,0,0,1,21.815,27.3Z" transform="translate(32.183 23.386)" fill="#fce914"/>
      <path id="Path_3093" data-name="Path 3093" d="M34.036,22c.139-.876.2-2.436-.708-2.436-.871,0-1.28,1.493-1.433,2.517-.183,1.161-.28,2.671.6,2.671,1.01,0,1.4-1.871,1.542-2.753m-1.443-4.218.042.054A3.527,3.527,0,0,1,35.7,15.852c3.1,0,3.364,3.9,2.97,6.354-.384,2.4-1.718,6.361-4.844,6.361a2.637,2.637,0,0,1-2.584-1.921l-.057.054c-.067.767-.119,1.5-.24,2.27l-.488,2.757-4.926.015,2.908-15.649h4.537Z" transform="translate(37.668 23.386)" fill="#fce914"/>
      <path id="Path_3094" data-name="Path 3094" d="M37.622,23.713a8.664,8.664,0,0,0,.4-1.671,6.641,6.641,0,0,0,.146-1.473c-.03-.552-.186-1-.728-1s-.9.562-1.141,1.233a12.828,12.828,0,0,0-.4,1.795,6.748,6.748,0,0,0-.082,1.4c.045.453.22.827.653.827.582,0,.938-.5,1.151-1.1m3.951,4.606H37.025l.527-2.015-.035-.05a4.236,4.236,0,0,1-3.49,2.309c-3.141,0-3.094-4.092-2.715-6.483s1.7-6.23,4.822-6.23a2.668,2.668,0,0,1,2.594,2.168l.057-.042.1-1.884H43.5Z" transform="translate(45.931 23.386)" fill="#fce914"/>
      <path id="Path_3095" data-name="Path 3095" d="M44.924,20.911a3.208,3.208,0,0,0-1.205-.431c-1.688,0-2.151,1.6-2.352,2.871l-.785,4.97H36.05L37.973,16.1h4.569l-.631,2.337.037.052a4.192,4.192,0,0,1,3.77-2.631Z" transform="translate(53.184 23.384)" fill="#fce914"/>
      <path id="Path_3096" data-name="Path 3096" d="M45.855,18.1l.037.042a3.988,3.988,0,0,1,3.369-2.287,2.738,2.738,0,0,1,2.795,2.517H52.1a3.8,3.8,0,0,1,3.366-2.517c2.384,0,2.988,1.688,2.567,4.369l-1.292,8.1H52.214l1.04-6.626c.087-.485.173-1.46-.507-1.46-.572,0-.814.359-.993.824a5.3,5.3,0,0,0-.317,1.356L50.5,28.321H45.964l1.072-6.76c.084-.559.074-1.248-.488-1.248a1.129,1.129,0,0,0-1.064.832,5.94,5.94,0,0,0-.309,1.359l-.923,5.817h-4.53L41.657,16.1h4.569Z" transform="translate(58.599 23.385)" fill="#fce914"/>
      <path id="Path_3097" data-name="Path 3097" d="M54.441,22.205c-.2,1.252-.314,2.963.775,2.963s1.515-1.71,1.723-2.963.3-2.955-.78-2.955c-1.1,0-1.527,1.708-1.718,2.955m6.938,0c-.554,3.418-2.79,6.361-6.7,6.361s-5.228-2.943-4.688-6.361,2.8-6.354,6.7-6.354c3.923,0,5.228,2.933,4.691,6.354" transform="translate(73.58 23.385)" fill="#fce914"/>
      <path id="Path_3098" data-name="Path 3098" d="M65.748,19.2A2.427,2.427,0,0,0,63.7,18.192c-2.441,0-3.48,2.7-3.79,4.624-.312,2.037-.124,4.631,2.233,4.631A4.1,4.1,0,0,0,64.83,26.33l-1.057,4.891a7.44,7.44,0,0,1-2.933.611c-3.874,0-6.686-2.941-5.743-8.9C56.33,15.11,61.9,13.8,64.2,13.8a5.9,5.9,0,0,1,2.334.411Z" transform="translate(81.013 20.356)" fill="#fce914"/>
      <path id="Path_3099" data-name="Path 3099" d="M65.773,23.793a9.713,9.713,0,0,0,.4-1.649,7.5,7.5,0,0,0,.134-1.5c-.027-.532-.183-1-.72-1-.557,0-.889.557-1.136,1.238a11.946,11.946,0,0,0-.411,1.807,7.255,7.255,0,0,0-.079,1.376c.035.465.218.839.658.839.582,0,.936-.512,1.151-1.116M69.718,28.4h-4.54l.522-2.012-.03-.045a4.28,4.28,0,0,1-3.5,2.3c-3.144,0-3.1-4.089-2.728-6.468.386-2.408,1.705-6.257,4.842-6.257a2.683,2.683,0,0,1,2.587,2.183l.059-.045.1-1.874h4.6Z" transform="translate(87.449 23.492)" fill="#fce914"/>
      <path id="Path_3100" data-name="Path 3100" d="M74.819,23.793a9,9,0,0,0,.4-1.649,7.858,7.858,0,0,0,.136-1.5c-.03-.532-.191-1-.72-1-.552,0-.9.557-1.151,1.238a13.112,13.112,0,0,0-.389,1.807A6.941,6.941,0,0,0,73,24.07c.059.465.228.839.668.839.584,0,.928-.512,1.151-1.116M78.75,28.4H74.22l.532-2.012-.035-.045a4.29,4.29,0,0,1-3.493,2.3c-3.146,0-3.109-4.089-2.713-6.468.366-2.408,1.693-6.257,4.822-6.257a2.673,2.673,0,0,1,2.587,2.183l.059-.045.106-1.874h4.6Z" transform="translate(100.799 23.492)" fill="#fce914"/>
      <path id="Path_3101" data-name="Path 3101" d="M66.168,24.016a2.949,2.949,0,0,0,2.059,1.265c.389,0,.916-.193.978-.619s-.282-.71-1.022-.985c-1.676-.619-2.946-1.532-2.621-3.624.4-2.537,2.71-4.129,5.564-4.129a7.151,7.151,0,0,1,3.562,1l-2.067,3.314a2.509,2.509,0,0,0-1.735-1.094.738.738,0,0,0-.76.6c-.1.629.728.953,1.178,1.144,1.54.621,2.728,1.5,2.408,3.493a5.391,5.391,0,0,1-5.552,4.272,7.655,7.655,0,0,1-4.2-1.26Z" transform="translate(94.359 23.492)" fill="#fce914"/>
      <path id="Path_3102" data-name="Path 3102" d="M42.788,12.836a7.719,7.719,0,0,1-1.817,1.641.771.771,0,0,0,0,1.069.707.707,0,0,0,1.017-.032s2.9-1.475,5.087-8.319l-1.51.176c-.166.426-.26.76-.436,1.146-4.829,1.131-6.007.691-6.007.691l-.579,1.438a16.528,16.528,0,0,0,6-.663,10.466,10.466,0,0,1-.676,1.25c-4.337,1.181-5.886.765-5.886.765l-.547,1.386s1.282.421,5.354-.547" transform="translate(55.225 10.615)" fill="#009440"/>
      <path id="Path_3103" data-name="Path 3103" d="M55.491,6.593c1.171,2.361-1.037,2.822-1.037,2.822a1.782,1.782,0,0,1-1.72-1.1,1.973,1.973,0,0,1-2.079.149,1.712,1.712,0,0,1-.4-2.295,1.87,1.87,0,0,1-1.77-2.312c.285-1.881,2.827-1.27,2.827-1.27l-.611,1.4s-.735-.106-.772.265a.506.506,0,0,0,.71.51l.834,1.708s-.423.51-.025.829c.416.309.755-.233.755-.233l1.79.334s.126.743.468.589c.238-.116,0-.713,0-.713Z" transform="translate(71.478 3.677)" fill="#e00b17"/>
      <path id="Path_3104" data-name="Path 3104" d="M71.665,15.19c-9.938-1.9-11.842-9.418-11.842-9.418A30.751,30.751,0,0,1,40,13.255a.723.723,0,1,1,0-1.446h.045s10.607.822,20.3-8.537a14.23,14.23,0,0,0,2.834,5.686,4.03,4.03,0,0,0,.46-1.554s1.629,1.384,5.488,1.842a12.359,12.359,0,0,0-1.248,3.267A14.742,14.742,0,0,0,72,13.789a.721.721,0,1,1-.339,1.4" transform="translate(57.94 4.827)" fill="#e00b17"/>
      <path id="Path_3105" data-name="Path 3105" d="M38.255,6.42c.228.3,1.176,1.332,4.141,1.668a4.464,4.464,0,0,1,2.772,1.418l.064-.163a.755.755,0,0,1,.96-.364.74.74,0,0,1,.361.97l-2.277,5.876a.683.683,0,0,1-.926.359.708.708,0,0,1-.451-.913l1.636-4.2c-.512-1.089-2.265-1.542-2.265-1.542-3.5-.327-4.017-1.458-4.017-1.458a2.83,2.83,0,0,0,2.8,2.837s-1.176,2.275,1.252,2.941l-.067-.02a.713.713,0,0,1,.433.926.727.727,0,0,1-.921.441l-.022-.007a3.542,3.542,0,0,1-1.329-.661c-.522,1.624-1.676,1.582-1.676,1.582-1.094.042-1.317-1.141-1.317-1.141-2.557,1.364-2.572-1.295-2.572-1.295-2.688.579-2.238-1.421-2.238-1.421.854-3.072,4.2-3.762,4.2-3.762a2.568,2.568,0,0,1,.6-2.072.547.547,0,0,1,.767-.1s.069.087.084.109" transform="translate(48.058 9.137)" fill="#e00b17"/>
      <path id="Path_3106" data-name="Path 3106" d="M49.752,5.751a8.56,8.56,0,0,0,2.488.881,4.283,4.283,0,0,0-.634,1.47,13.4,13.4,0,0,1-2.228-1.6Z" transform="translate(72.846 8.484)" fill="#1f3c89"/>
      <path id="Path_3107" data-name="Path 3107" d="M35.042,9.03a.747.747,0,0,1,.993-.126.721.721,0,0,1,.158,1.015,11.686,11.686,0,0,0-.847,1.431c-.121.364.017.4.24.173.26-.26.928-1.062.928-1.062.28-.3.371-.532.891-.366a.761.761,0,0,1,.4,1.015,3.1,3.1,0,0,0-.228,1.087s0,.48.262.069a3.086,3.086,0,0,0,.619-1.309v.03a1.712,1.712,0,0,1-.045-1.3,3.653,3.653,0,0,1-2.25-1.978c-2.616.75-2.9,2.359-2.9,2.359a3.172,3.172,0,0,0,1.777-1.04" transform="translate(49.075 11.376)" fill="#1f3c89"/>
      <path id="Path_3108" data-name="Path 3108" d="M52.312,8.131A3.024,3.024,0,1,0,49.3,5.106a3.029,3.029,0,0,0,3.017,3.025" transform="translate(72.724 3.074)" fill="#ffe300"/>
      <path id="Path_3109" data-name="Path 3109" d="M49.641,5.241a2.8,2.8,0,1,1,2.8,2.8,2.808,2.808,0,0,1-2.8-2.8m2.8,3.243a3.245,3.245,0,1,0-3.233-3.243,3.247,3.247,0,0,0,3.233,3.243" transform="translate(72.595 2.94)" fill="#004995"/>
      <path id="Path_3110" data-name="Path 3110" d="M59.685,9.161l-4.139,4.673v-.02a.725.725,0,1,1-1.131-.908v0l3.21-3.621a3.817,3.817,0,0,0-1.547-2.233c-3.1-1.678-3.116-2.916-3.116-2.916a2.8,2.8,0,0,0,1.46,3.7S52.44,9.47,54.4,11.039l-.045-.05a.724.724,0,0,1-.985,1.062l-.017-.025a3.391,3.391,0,0,1-.963-1.116,2.658,2.658,0,0,1,.119-2.767,4,4,0,0,1-1.064-4.2,2.59,2.59,0,0,1,1.374-1.671s.713-.351.849.213c0,0,.153,1.535,3.089,3.3a4.291,4.291,0,0,1,1.946,2.3.75.75,0,0,1,.973.062.717.717,0,0,1,.01,1.017" transform="translate(75.589 3.189)" fill="#e00b17"/>
      <path id="Path_3111" data-name="Path 3111" d="M42.028,24.235a.664.664,0,0,1-.755-.525.652.652,0,0,1,.535-.743c14.619-3.418,22.315-.067,22.315-.067-.49-7.176,2.537-11.339,2.537-11.339l1.455.376a7.264,7.264,0,0,0-1.168,1.681,3.657,3.657,0,0,0,4.171-3.059,3.344,3.344,0,0,0-.243-2.21l.955-1.092a4.986,4.986,0,0,1,.579,3.53,5.186,5.186,0,0,1-6.032,4.077,11.73,11.73,0,0,0-.4,1.218A6.341,6.341,0,0,0,73.4,11.747a6.151,6.151,0,0,0-.824-5.312l.926-1.047a7.465,7.465,0,0,1,1.2,6.748A7.7,7.7,0,0,1,65.7,17.4a35.816,35.816,0,0,0-.1,6.359.723.723,0,0,1-.733.725s-8.223-3.656-22.837-.252" transform="translate(60.879 7.949)" fill="#009440"/>
      <path id="Path_3112" data-name="Path 3112" d="M52.292,3.59a.835.835,0,0,0-.713-.364,1.155,1.155,0,0,0-1.064.946.782.782,0,0,0,.8.965,1.122,1.122,0,0,0,.8-.356l-.1.663a1.68,1.68,0,0,1-.777.188A1.19,1.19,0,0,1,50,4.2,1.745,1.745,0,0,1,51.71,2.736a1.326,1.326,0,0,1,.691.181Z" transform="translate(73.742 4.036)" fill="#004995"/>
      <path id="Path_3113" data-name="Path 3113" d="M49.9,3.135h1.577l-.047.245H49.853Z" transform="translate(73.546 4.624)" fill="#004995"/>
      <path id="Path_3114" data-name="Path 3114" d="M49.862,3.366h1.589l-.054.255H49.8Z" transform="translate(73.469 4.966)" fill="#004995"/>
      <path id="Path_3115" data-name="Path 3115" d="M49.439,15.98a3.228,3.228,0,0,1,3.027-2.646,2.209,2.209,0,0,1,2.285,2.611,3.258,3.258,0,0,1-3.074,2.691,2.212,2.212,0,0,1-2.238-2.656M47.273,32.035,49.2,19.809h4.54L51.8,32.035Z" transform="translate(69.741 19.671)" fill="#fce914"/>
      <path id="Path_3116" data-name="Path 3116" d="M45.174,11.369c-.045-.817.079-1.6.7-1.755,0,0,1.874-.8,2.295,3.4-.183.012-.364.04-.554.062a2.892,2.892,0,0,0-1.386-1.485,2.347,2.347,0,0,0-1.05-.22m4,1.6C48.7,8.176,46.234,8.6,46.234,8.6c-.344-.272-.193-.874-.193-.874-.658.21-.72,1.052-.72,1.052a1.092,1.092,0,0,1-.307-.72,1.364,1.364,0,0,0-.535,1.337.766.766,0,0,1-.493-.522,1.861,1.861,0,0,0,.285,1.852,7.559,7.559,0,0,0,.418,3.092,3.766,3.766,0,0,0-.624.309l.339.832a9.437,9.437,0,0,1,5.218-1.032l.092-.931c-.208,0-.351-.02-.545-.017" transform="translate(64.733 11.394)" fill="#004995"/>
      <path id="Path_3117" data-name="Path 3117" d="M48.128,11.075c.111-.807.381-1.552,1.027-1.577,0,0,2-.428,1.569,3.782a4.446,4.446,0,0,0-.545-.045,2.854,2.854,0,0,0-1.074-1.73,2.4,2.4,0,0,0-.978-.431m3.594,2.356c.5-4.79-2.015-4.869-2.015-4.869-.27-.332-.015-.879-.015-.879-.688.067-.911.871-.911.871a1.172,1.172,0,0,1-.168-.767A1.4,1.4,0,0,0,47.829,9a.777.777,0,0,1-.374-.619,1.888,1.888,0,0,0-.094,1.879,7.49,7.49,0,0,0-.2,3.111,5.373,5.373,0,0,0-.681.178l.176.879a9.472,9.472,0,0,1,5.317.025l.277-.9c-.2-.045-.339-.089-.53-.129" transform="translate(68.574 11.336)" fill="#004995"/>
      <path id="Path_3118" data-name="Path 3118" d="M59.008,11.868a1.5,1.5,0,1,1-1.5-1.5A1.5,1.5,0,0,1,59.008,11.868Z" transform="translate(82.627 15.293)" fill="none" stroke="#004995" stroke-width="0.081"/>
      <path id="Path_3119" data-name="Path 3119" d="M56.377,10.614h.777a.855.855,0,0,1,.322.054.413.413,0,0,1,.24.411.4.4,0,0,1-.067.25.453.453,0,0,1-.173.161.34.34,0,0,1,.144.106.379.379,0,0,1,.059.215l.01.233a.768.768,0,0,0,.015.144.2.2,0,0,0,.072.114v.032h-.282c-.01-.01-.01-.03-.017-.057s0-.064-.015-.136l-.012-.287a.242.242,0,0,0-.116-.225.572.572,0,0,0-.213-.032h-.507v.738h-.235Zm.755.79a.386.386,0,0,0,.25-.069.252.252,0,0,0,.1-.235.259.259,0,0,0-.129-.25.5.5,0,0,0-.2-.042h-.545v.6Z" transform="translate(83.172 15.659)" fill="#004995"/>
    </g>
  </g>
</svg>
