<?xml version="1.0" encoding="UTF-8"?>
<svg xmlns="http://www.w3.org/2000/svg" version="1.1" viewBox="0 0 340 50">
  <defs>
    <style>
      .cls-1 {
        fill-rule: evenodd;
      }

      .cls-1, .cls-2 {
        fill: #FFFFFF;
      }
    </style>
  </defs>
  <!-- Generator: Adobe Illustrator 28.7.1, SVG Export Plug-In . SVG Version: 1.2.0 Build 142)  -->
  <g>
    <g id="Livello_1">
      <g id="Raggruppa_1">
        <path id="Tracciato_1" class="cls-1" d="M328.4,11.8v4.4h1.6c.4,0,.8,0,1.2-.3.3-.2.4-.6.4-.9,0-.2,0-.4-.1-.5,0-.2-.2-.3-.4-.4-.1,0-.3-.1-.4-.2.2,0,.4-.1.6-.3.2-.2.3-.4.2-.7,0-.2,0-.5-.2-.6-.2-.2-.4-.3-.6-.3-.3,0-.6-.1-1-.1h-1.3ZM330,15.7h-.8v-1.5h.8c.3,0,.5,0,.8.2.2.1.3.3.3.5,0,.2,0,.4-.2.6-.2.1-.5.2-.7.2M329.9,13.7h-.7v-1.3h.7c.3,0,.5,0,.8.2.2,0,.3.3.2.5,0,.2,0,.4-.2.5-.2.1-.5.2-.7.2"/>
        <path id="Tracciato_2" class="cls-1" d="M328.1,17.9c1,.4,2.2.4,3.3,0,1-.4,1.8-1.2,2.2-2.2.2-.5.3-1.1.3-1.6,0-.6-.1-1.1-.3-1.6-.2-.5-.5-1-.9-1.3-1.2-1.2-3-1.6-4.6-.9-.5.2-1,.5-1.3.9-.4.4-.7.8-.9,1.3-.2.5-.3,1.1-.3,1.6,0,.6.1,1.1.3,1.6.2.5.5,1,.9,1.3.4.4.8.7,1.3.9M331.1,17.4c-.4.2-.9.3-1.4.3-.5,0-1,0-1.4-.3-.9-.4-1.6-1.1-1.9-1.9-.2-.4-.3-.9-.3-1.4,0-.5,0-1,.3-1.4.2-.4.4-.8.8-1.2.3-.3.7-.6,1.2-.8.4-.2.9-.3,1.4-.3.5,0,1,0,1.4.3.9.4,1.6,1.1,1.9,1.9.2.4.3.9.3,1.4,0,.5,0,1-.3,1.4-.2.4-.4.8-.8,1.2-.3.3-.7.6-1.2.8"/>
        <path id="Tracciato_3" class="cls-2" d="M7.2,25.2v-13.1h15.8v-1H6.1v28.7h1.1v-13.6h13.8v-1H7.2Z"/>
        <path id="Tracciato_4" class="cls-1" d="M47,39.8h.9l-11.9-28.7h-1.1l-11.9,28.7h.8c.2,0,.4-.1.5-.3l3.7-9.1h14.7l3.7,9.1c0,.2.2.3.4.3M35.9,13.5l6.6,16h-14l6.6-16c.2-.4.3-.8.4-1.2.1.4.3.9.4,1.2"/>
        <path id="Tracciato_5" class="cls-2" d="M74.7,39.8V11.1h-1v26.8s-19.6-26.5-19.6-26.5c0,0-.1-.2-.2-.2,0,0-.2,0-.3,0h-.5v28.7h1V13.7c0-.1,0-.2,0-.3,0-.1,0-.3,0-.4l19.7,26.6c.1.2.3.2.4.2h.5Z"/>
        <path id="Tracciato_6" class="cls-2" d="M91.6,12.1h10.5v-1h-22.2v1h10.6v27.7h1.1V12.1Z"/>
        <path id="Tracciato_7" class="cls-1" d="M124.5,39.8h.9l-11.9-28.7h-1.1l-11.9,28.7h.8c.2,0,.4-.1.5-.3l3.7-9.1h14.7l3.7,9.1c0,.2.2.3.4.3M113.4,13.5l6.6,16h-14l6.6-16c.2-.4.3-.8.4-1.2.1.4.3.9.4,1.2"/>
        <path id="Tracciato_8" class="cls-2" d="M144.4,15.6c.2-.1.3-.3.4-.5l1-1.9c-1-1-2.2-1.7-3.6-2.2-1.4-.5-2.9-.8-4.5-.8-1.3,0-2.6.2-3.9.7-1.1.4-2,1-2.8,1.8-1.5,1.5-2.4,3.5-2.3,5.6,0,1.1.2,2.2.6,3.3.4.8.9,1.6,1.6,2.2.7.6,1.4,1.1,2.2,1.4.8.4,1.7.7,2.6,1,.9.3,1.7.5,2.6.8.8.2,1.5.6,2.2,1,.6.4,1.2.8,1.6,1.4.4.6.6,1.4.6,2.2,0,.7-.1,1.5-.4,2.2-.3.6-.7,1.2-1.2,1.7-.5.5-1.2.9-1.9,1.1-.8.3-1.7.4-2.5.4-.7,0-1.4,0-2-.2-.6-.1-1.1-.3-1.6-.6-.4-.2-.9-.4-1.2-.7-.4-.3-.7-.5-1-.7-.2-.2-.5-.4-.8-.5-.2-.1-.4-.2-.6-.2-.2,0-.4,0-.5.2-.2,0-.3.2-.4.4l-1.1,1.9c1.1,1.2,2.5,2.1,4,2.8,1.6.7,3.4,1,5.2,1,1.4,0,2.8-.2,4.1-.7,1.2-.4,2.2-1.1,3.1-2,.8-.8,1.5-1.8,1.9-2.9.4-1.2.7-2.4.7-3.6,0-1.1-.2-2.1-.6-3.1-.4-.8-.9-1.5-1.6-2.1-.7-.6-1.4-1.1-2.2-1.4-.8-.4-1.7-.7-2.6-1-.9-.3-1.7-.6-2.6-.9-.8-.3-1.5-.6-2.2-1-.6-.3-1.2-.8-1.6-1.4-.4-.6-.6-1.3-.6-2,0-.6.1-1.2.3-1.8.2-.6.6-1.1,1-1.5.5-.4,1.1-.8,1.7-1,.8-.3,1.5-.4,2.3-.4.8,0,1.6,0,2.4.3.6.2,1.2.5,1.7.8.4.2.8.5,1.2.8.2.2.5.3.8.3.2,0,.4,0,.5-.1"/>
        <path id="Tracciato_9" class="cls-1" d="M172.2,39.8h3.1l-11.7-29.2h-4l-11.7,29.2h3.1c.3,0,.6,0,.9-.3.2-.2.4-.4.5-.7l2.7-7.1h13.1l2.7,7.1c.1.3.3.5.5.7.2.2.5.3.9.3M162.5,17.1l4.6,11.9h-10.9l4.6-11.9c.4-.9.6-1.8.9-2.8.1.5.3,1,.4,1.5.1.5.3.9.4,1.2"/>
        <path id="Tracciato_10" class="cls-2" d="M202.8,39.8V10.6h-3.5v20.7c0,.3,0,.6,0,1,0,.3,0,.7,0,1l-16.9-22c0-.1-.2-.2-.3-.3,0,0-.2-.2-.3-.2-.1,0-.2,0-.3,0-.1,0-.3,0-.4,0h-2v29.2h3.5v-20.8c0-.3,0-.6,0-.9,0-.3,0-.7,0-1l16.9,22c.2.2.4.4.6.6.2.1.5.2.8.2h2Z"/>
        <path id="Tracciato_11" class="cls-1" d="M228.4,39.8h3.5l-8.5-11.6c-.3-.5-.8-.9-1.3-1.2,1.1-.2,2.1-.6,3-1.1.9-.5,1.6-1.1,2.3-1.8.6-.7,1.1-1.5,1.4-2.4.3-.9.5-1.9.5-2.9,0-1.1-.2-2.3-.6-3.3-.4-1-1.1-1.9-2-2.6-1-.8-2.1-1.3-3.3-1.6-1.6-.4-3.2-.6-4.8-.6h-8.3v29.2h3.9v-12.2h3c.4,0,.8,0,1.2.2.3.2.6.4.8.7l7.6,10.4c.3.6.9.9,1.6.8M221.4,24.3c-1,.3-2,.4-3,.4h-4.2v-11h4.3c1.8-.1,3.6.3,5.1,1.3,1.2,1,1.8,2.4,1.7,3.9,0,.8-.1,1.6-.4,2.3-.3.7-.8,1.3-1.3,1.8-.6.5-1.4.9-2.2,1.2"/>
        <path id="Tracciato_12" class="cls-2" d="M253.9,39.8v-3.2s-14.1,0-14.1,0v-10h11.4v-3.1h-11.4v-9.7h14.1v-3.2h-18v29.2h18Z"/>
        <path id="Tracciato_13" class="cls-2" d="M289.9,39.8V10.6h-2.9c-.3,0-.6,0-.8,0-.2.1-.4.3-.5.6l-9.9,18c-.2.3-.3.7-.5,1-.1.4-.3.7-.4,1.1-.1-.4-.3-.7-.4-1.1-.1-.4-.3-.7-.5-1l-10.1-18c-.1-.2-.3-.5-.6-.6-.3,0-.5-.1-.8,0h-2.9v29.2h3.5v-21.5c0-.7,0-1.3-.1-2l10.2,18.4c.2.6.8.9,1.4.9h.6c.6,0,1.2-.3,1.4-.9l10-18.3c0,.3,0,.7,0,1,0,.3,0,.6,0,.9v21.5h3.5Z"/>
        <path id="Tracciato_14" class="cls-1" d="M323.4,31.2c.7-1.9,1.1-4,1-6,0-2.1-.3-4.1-1-6-.6-1.8-1.6-3.4-2.9-4.7-1.3-1.3-2.8-2.4-4.6-3.1-3.8-1.5-8-1.5-11.8,0-1.7.7-3.3,1.8-4.6,3.1-1.3,1.4-2.3,3-2.9,4.7-.7,1.9-1.1,4-1,6,0,2.1.3,4.1,1,6,.7,1.8,1.6,3.4,2.9,4.7,1.3,1.3,2.8,2.4,4.6,3.1,3.8,1.4,8,1.4,11.8,0,1.7-.7,3.3-1.7,4.6-3.1,1.3-1.4,2.3-3,2.9-4.7M319.6,20.4c.5,1.6.8,3.2.7,4.8,0,1.6-.2,3.3-.7,4.8-.4,1.3-1.2,2.6-2.1,3.6-.9,1-2,1.8-3.3,2.3-2.8,1-5.8,1-8.6,0-1.2-.5-2.4-1.3-3.3-2.3-.9-1-1.6-2.3-2.1-3.6-.5-1.6-.8-3.2-.7-4.8,0-1.6.2-3.3.7-4.8.4-1.3,1.1-2.6,2.1-3.6.9-1,2-1.8,3.3-2.3,2.8-1.1,5.8-1.1,8.6,0,1.2.5,2.4,1.3,3.3,2.3.9,1,1.6,2.3,2.1,3.6"/>
      </g>
    </g>
  </g>
</svg>