<?xml version="1.0" encoding="UTF-8"?>
<svg xmlns="http://www.w3.org/2000/svg" version="1.1" viewBox="0 0 220 50">
  <defs>
    <style>
      .cls-1 {
        isolation: isolate;
      }

      .cls-2 {
        fill: #de0818;
      }

      .cls-3 {
        fill: #fdea13;
      }
    </style>
  </defs>
  <!-- Generator: Adobe Illustrator 28.7.1, SVG Export Plug-In . SVG Version: 1.2.0 Build 142)  -->
  <g>
    <g id="Livello_1">
      <g>
        <rect id="Rettangolo_5" class="cls-2" x="20" y="9.5" width="179.9" height="31" transform="translate(-.8 3.9) rotate(-2)"/>
        <g id="PARTECIPA" class="cls-1">
          <g class="cls-1">
            <path class="cls-3" d="M41.9,22.4c0,4.6-3.4,7.4-8.9,7.4h-3.5v5.2h-5.7V15h9.2c5.5,0,8.9,2.8,8.9,7.4ZM36.2,22.4c0-1.9-1.2-3-3.5-3h-3.2v5.9h3.2c2.4,0,3.5-1.1,3.5-2.9Z"/>
            <path class="cls-3" d="M57.1,31.1h-8.5l-1.6,3.9h-5.8l8.9-20.1h5.6l8.9,20.1h-5.9l-1.6-3.9ZM55.4,26.9l-2.6-6.4-2.6,6.4h5.2Z"/>
            <path class="cls-3" d="M75,29.7h-3.1v5.3h-5.7V15h9.2c5.5,0,8.9,2.8,8.9,7.4s-1.4,5.1-3.9,6.3l4.3,6.3h-6.1l-3.6-5.3ZM75,19.4h-3.2v5.9h3.2c2.4,0,3.5-1.1,3.5-2.9s-1.2-3-3.5-3Z"/>
            <path class="cls-3" d="M91.4,19.5h-6.2v-4.5h18v4.5h-6.1v15.6h-5.7v-15.6Z"/>
            <path class="cls-3" d="M121.4,30.6v4.4h-16.1V15h15.7v4.4h-10.1v3.4h8.9v4.2h-8.9v3.7h10.5Z"/>
            <path class="cls-3" d="M123.5,25c0-6.1,4.7-10.4,11-10.4s6.7,1.3,8.6,3.8l-3.6,3.3c-1.3-1.5-2.8-2.4-4.7-2.4-3.3,0-5.6,2.3-5.6,5.7s2.3,5.7,5.6,5.7,3.5-.8,4.7-2.4l3.6,3.3c-2,2.4-4.9,3.8-8.6,3.8-6.4,0-11-4.3-11-10.4Z"/>
            <path class="cls-3" d="M145.7,15h5.7v20.1h-5.7V15Z"/>
            <path class="cls-3" d="M173.5,22.4c0,4.6-3.4,7.4-8.9,7.4h-3.5v5.2h-5.7V15h9.2c5.5,0,8.9,2.8,8.9,7.4ZM167.8,22.4c0-1.9-1.2-3-3.5-3h-3.2v5.9h3.2c2.4,0,3.5-1.1,3.5-2.9Z"/>
            <path class="cls-3" d="M188.7,31.1h-8.5l-1.6,3.9h-5.8l8.9-20.1h5.6l8.9,20.1h-5.9l-1.6-3.9ZM187,26.9l-2.6-6.4-2.6,6.4h5.2Z"/>
          </g>
        </g>
      </g>
    </g>
  </g>
</svg>