<?xml version="1.0" encoding="UTF-8"?>
<svg xmlns="http://www.w3.org/2000/svg" version="1.1" viewBox="0 0 50 50">
  <defs>
    <style>
      .cls-1 {
        fill: #de0919;
      }
    </style>
  </defs>
  <!-- Generator: Adobe Illustrator 28.7.1, SVG Export Plug-In . SVG Version: 1.2.0 Build 142)  -->
  <g>
    <g id="Livello_1">
      <g>
        <path class="cls-1" d="M45.4,18.6c-3.3,1.1-6.9-.8-7.9-4.2h0c1.1,3.4-.8,6.9-4.1,8h0c3.3-1.1,6.9.8,7.9,4.2h0c-1.1-3.3.8-6.9,4.1-8h0Z"/>
        <path class="cls-1" d="M12.6,18.8c-2.2,0-4-1.8-4-4h0c0,2.2-1.8,4-4,4h0c2.2,0,4,1.8,4,4h0c0-2.2,1.8-4,4-4h0Z"/>
        <path class="cls-1" d="M25.3,31.1c-1.9.6-3.9-.5-4.4-2.3h0c.6,1.9-.4,3.9-2.3,4.5h0c1.9-.6,3.9.5,4.4,2.3h0c-.6-1.9.4-3.9,2.3-4.5h0Z"/>
      </g>
    </g>
  </g>
</svg>