<?xml version="1.0" encoding="UTF-8"?>
<svg xmlns="http://www.w3.org/2000/svg" version="1.1" viewBox="0 0 50 50">
  <defs>
    <style>
      .cls-1 {
        fill: #de0919;
      }
    </style>
  </defs>
  <!-- Generator: Adobe Illustrator 28.7.1, SVG Export Plug-In . SVG Version: 1.2.0 Build 142)  -->
  <g>
    <g id="Livello_1">
      <g>
        <path class="cls-1" d="M43.9,21.2c-3,0-5.4-2.4-5.4-5.4h0c0,3-2.4,5.4-5.4,5.4h0c3,0,5.4,2.4,5.4,5.4h0c0-3,2.4-5.4,5.4-5.4h0Z"/>
        <path class="cls-1" d="M10.8,18.9c-1.3,0-2.3-1.1-2.3-2.4h0c0,1.3-1,2.4-2.3,2.4h0c1.3,0,2.3,1.1,2.3,2.4h0c0-1.3,1-2.4,2.3-2.4h0Z"/>
        <path class="cls-1" d="M23.9,30.8c-1.9,0-3.4-1.5-3.4-3.4h0c0,1.9-1.5,3.4-3.4,3.4h0c1.9,0,3.4,1.5,3.4,3.4h0c0-1.9,1.5-3.4,3.4-3.4h0Z"/>
      </g>
    </g>
  </g>
</svg>