<?xml version="1.0" encoding="UTF-8"?>
<svg xmlns="http://www.w3.org/2000/svg" version="1.1" viewBox="0 0 220 50">
  <defs>
    <style>
      .cls-1 {
        fill: #feca27;
      }

      .cls-2 {
        fill: #202867;
      }
    </style>
  </defs>
  <!-- Generator: Adobe Illustrator 28.7.1, SVG Export Plug-In . SVG Version: 1.2.0 Build 142)  -->
  <g>
    <g id="Livello_1">
      <g>
        <path class="cls-2" d="M36.9,43.5c-.8-.9-1.2-2.2-1.2-4v-10.9h-2.6v-4.4h2.6v-5.5h5v5.5h3.3v4.4h-3.3v9.7c0,.7.1,1.2.4,1.5.3.4.6.5,1.1.5s.6,0,.9-.1.5-.3.6-.4l1,3.8c-.9.8-2.1,1.2-3.8,1.2-1.8,0-3.1-.4-3.9-1.3Z"/>
        <path class="cls-2" d="M45.6,20.4c-.6-.6-.9-1.3-.9-2.1s.3-1.5.9-2.1c.6-.6,1.3-.9,2.1-.9s1.5.3,2.1.9c.6.6.9,1.3.9,2.1s-.3,1.5-.9,2.1c-.6.6-1.3.9-2.1.9s-1.5-.3-2.1-.9ZM45.2,24.3h5v20h-5v-20Z"/>
        <path class="cls-2" d="M52.9,28.9c.7-1.6,1.8-2.8,3.2-3.7,1.4-.9,3-1.3,4.8-1.3s2.7.3,3.8.7c1.1.5,1.9,1.2,2.6,1.9l-2.5,3.4c-.9-1.2-2.1-1.8-3.4-1.8s-2.5.6-3.4,1.7-1.2,2.6-1.2,4.4.4,3.3,1.2,4.4c.8,1.2,1.9,1.7,3.4,1.7s2.4-.6,3.4-1.8l2.5,3.4c-.7.8-1.5,1.5-2.6,1.9-1.1.5-2.3.7-3.8.7s-3.4-.4-4.8-1.3c-1.4-.9-2.5-2.1-3.2-3.7-.7-1.6-1.2-3.4-1.2-5.4,0-1.9.4-3.8,1.2-5.3Z"/>
        <path class="cls-2" d="M75.5,36.5l-2.1,2.9v4.9h-5v-27.7h5v16.7l6.1-9.1h5.8l-6.3,9,6.6,11h-5.9l-4.2-7.8Z"/>
        <path class="cls-2" d="M85.4,28.9c.7-1.6,1.8-2.9,3.1-3.8,1.3-.9,2.9-1.4,4.7-1.4,2.7,0,4.8,1,6.3,3,1.5,2,2.3,4.6,2.3,7.7v1.4h-12.6c.1,1.5.6,2.6,1.4,3.5.8.9,2,1.4,3.4,1.4s1.6-.2,2.4-.5c.8-.3,1.5-.8,2-1.4l2.3,3c-.9,1-1.9,1.7-3.2,2.2-1.3.5-2.6.8-4,.8s-3.5-.4-4.9-1.3c-1.4-.9-2.5-2.1-3.3-3.7-.8-1.6-1.2-3.4-1.2-5.5,0-2,.3-3.8,1.1-5.4ZM90.4,29.2c-.6.9-1,2.1-1,3.3h7.8c0-1.2-.4-2.4-1-3.3-.6-.9-1.6-1.4-2.9-1.4-1.3,0-2.2.5-2.8,1.4Z"/>
        <path class="cls-2" d="M105.5,43.5c-.8-.9-1.2-2.2-1.2-4v-10.9h-2.6v-4.4h2.6v-5.5h5v5.5h3.3v4.4h-3.3v9.7c0,.7.1,1.2.4,1.5.3.4.6.5,1.1.5s.6,0,.9-.1.5-.3.6-.4l1,3.8c-.9.8-2.1,1.2-3.8,1.2-1.8,0-3-.4-3.9-1.3Z"/>
        <path class="cls-2" d="M117,43.4c-1.3-1-2.4-2.2-3.1-3.8-.7-1.6-1-3.4-1-5.3s.3-3.7,1-5.3c.7-1.6,1.8-2.9,3.1-3.8,1.4-1,3-1.4,4.9-1.4s3.5.5,4.9,1.4c1.4,1,2.4,2.2,3.1,3.8.7,1.6,1,3.4,1,5.3s-.3,3.7-1,5.3c-.7,1.6-1.8,2.9-3.1,3.8-1.4,1-3,1.4-4.9,1.4s-3.5-.4-4.9-1.4ZM124.9,38.7c.7-1.2,1-2.6,1-4.4s-.3-3.2-1-4.4c-.7-1.2-1.6-1.7-2.9-1.7s-2.2.6-2.9,1.8c-.6,1.2-1,2.6-1,4.4s.3,3.2,1,4.4c.6,1.2,1.6,1.8,2.9,1.8,1.3,0,2.3-.6,2.9-1.8Z"/>
        <path class="cls-2" d="M143.8,31.1c0-2-.9-2.9-2.6-2.9s-1.5.2-2.1.7-1.2,1.1-1.6,1.8v13.7h-5v-20h5v2.6c.6-.9,1.4-1.6,2.5-2.2,1.1-.6,2.2-.9,3.4-.9,1.8,0,3.1.5,4,1.5.9,1,1.3,2.3,1.3,4v15.1h-5v-13.2h0Z"/>
        <path class="cls-2" d="M151.5,28.9c.7-1.6,1.8-2.9,3.1-3.8,1.3-.9,2.9-1.4,4.7-1.4,2.7,0,4.8,1,6.3,3,1.5,2,2.3,4.6,2.3,7.7v1.4h-12.6c.1,1.5.6,2.6,1.4,3.5.8.9,2,1.4,3.4,1.4s1.6-.2,2.4-.5c.8-.3,1.5-.8,2-1.4l2.3,3c-.9,1-1.9,1.7-3.2,2.2-1.3.5-2.6.8-4,.8s-3.5-.4-4.9-1.3c-1.4-.9-2.5-2.1-3.3-3.7-.8-1.6-1.2-3.4-1.2-5.5s.4-3.8,1.1-5.4ZM156.5,29.2c-.6.9-1,2.1-1,3.3h7.8c0-1.2-.4-2.4-1-3.3-.6-.9-1.6-1.4-2.9-1.4-1.3,0-2.2.5-2.8,1.4Z"/>
        <g id="_x33_5_x2C_11">
          <path class="cls-1" d="M173.1,18.9h0c2.3,2.3,2.4,5.9,2.4,8.5h.6c0-2.5,0-6.2,2.4-8.5h0c2.3-2.3,5.9-2.4,8.5-2.4v-.6c-2.5,0-6.2,0-8.5-2.4h0c-2.3-2.3-2.4-5.9-2.4-8.5h-.6c0,2.5,0,6.2-2.4,8.5h0c-2.3,2.3-5.9,2.4-8.5,2.4v.6c2.5,0,6.2,0,8.5,2.4Z"/>
        </g>
      </g>
    </g>
  </g>
</svg>