<?xml version="1.0" encoding="UTF-8"?>
<svg xmlns="http://www.w3.org/2000/svg" version="1.1" viewBox="0 0 220 50">
  <defs>
    <style>
      .cls-1 {
        fill: #1d1d1b;
      }
    </style>
  </defs>
  <!-- Generator: Adobe Illustrator 28.7.1, SVG Export Plug-In . SVG Version: 1.2.0 Build 142)  -->
  <g>
    <g id="Livello_1">
      <g id="Symbols">
        <g id="vivaticket">
          <path id="Shape" class="cls-1" d="M26,16.9c-.2-.3,0-.6.4-.6h3.3c.2,0,.3.2.4.3l4.1,9.1h.2l4.1-9.1c0,0,.3-.3.4-.3h3.3c.3,0,.6.3.4.6l-7.8,16.9c0,.2-.3.3-.4.3h-.3c-.2,0-.3,0-.4-.3l-7.7-16.9Z"/>
          <path id="Shape-2" data-name="Shape" class="cls-1" d="M48.3,16.7c0-.3.3-.4.4-.4h3c.3,0,.4.3.4.4v16.5c0,.3-.3.4-.4.4h-3c-.3,0-.4-.3-.4-.4v-16.5Z"/>
          <path id="Shape-3" data-name="Shape" class="cls-1" d="M57.8,16.9c-.2-.3,0-.6.4-.6h3.3c.2,0,.3.2.4.3l4.1,9.1h.2l4.1-9.1c0,0,.3-.3.4-.3h3.3c.3,0,.6.3.4.6l-7.8,16.9c0,.2-.3.3-.4.3h-.3c-.2,0-.3,0-.4-.3l-7.7-16.9Z"/>
          <path id="Shape-4" data-name="Shape" class="cls-1" d="M76.5,33.1l7.8-16.9c0-.2.3-.3.4-.3h.3c.2,0,.3,0,.4.3l7.8,16.9c.2.3,0,.6-.4.6h-2.8c-.4,0-.6-.2-.9-.6l-.9-2h-6.8l-.9,2c0,.3-.4.6-.9.6h-2.8c-.4,0-.6-.3-.5-.6ZM86.9,27.7l-1.9-4.1-1.9,4.1h3.8Z"/>
          <path id="Shape-5" data-name="Shape" class="cls-1" d="M101.6,18.6h-4.1c-.3,0-.4-.3-.4-.4v-1.4c0-.3.2-.4.4-.4h10.8c.3,0,.4.3.4.4v1.4c0,.3-.2.4-.4.4h-4.1v14.7c0,.3-.3.4-.4.4h-1.7c-.3,0-.4-.3-.4-.4v-14.7h0Z"/>
          <path id="Shape-6" data-name="Shape" class="cls-1" d="M114.9,16.7c0-.3.3-.4.4-.4h1.7c.3,0,.4.3.4.4v16.5c0,.3-.3.4-.4.4h-1.7c-.3,0-.4-.3-.4-.4v-16.5Z"/>
          <path id="Shape-7" data-name="Shape" class="cls-1" d="M133.7,16c2.5,0,4.3.9,6.1,2.3.3.2.3.5,0,.7l-1.1,1.1c-.2.3-.4.3-.6,0-1.2-1-2.8-1.7-4.3-1.7-3.6,0-6.3,3-6.3,6.5s2.7,6.4,6.3,6.4,3.1-.7,4.3-1.7c.3-.2.4-.2.6,0l1.1,1.1c.2.2.2.5,0,.7-1.7,1.7-3.8,2.4-6.1,2.4-5,0-9-4-9-9,0-5,4.1-9.1,9.1-9.1Z"/>
          <path id="Shape-8" data-name="Shape" class="cls-1" d="M146.9,16.8c0-.3.3-.6.6-.6h1.5c.3,0,.6.3.6.6v7l7-7.3c0,0,.3-.3.4-.3h1.9c.4,0,.7.5.3.9l-7.2,7.4,7.7,8.4c.2.3,0,.8-.4.8h-2c-.3,0-.4,0-.4-.2l-7.3-8.2v7.7c0,.3-.3.6-.6.6h-1.5c-.3,0-.6-.3-.6-.6v-16.3Z"/>
          <path id="Shape-9" data-name="Shape" class="cls-1" d="M166.2,16.7c0-.3.2-.4.4-.4h10c.3,0,.4.3.4.4v1.4c0,.3-.2.4-.4.4h-7.9v5.1h6.7c.3,0,.4.3.4.4v1.4c0,.3-.3.4-.4.4h-6.7v5.4h7.9c.3,0,.4.3.4.4v1.4c0,.3-.2.4-.4.4h-10c-.3,0-.4-.3-.4-.4v-16.4Z"/>
          <path id="Shape-10" data-name="Shape" class="cls-1" d="M186.9,18.6h-4.1c-.3,0-.4-.3-.4-.4v-1.4c0-.3.2-.4.4-.4h10.8c.3,0,.4.3.4.4v1.4c0,.3-.2.4-.4.4h-4.1v14.7c0,.3-.3.4-.4.4h-1.7c-.3,0-.4-.3-.4-.4v-14.7h0Z"/>
        </g>
      </g>
    </g>
  </g>
</svg>